<svg width="20" height="21" viewBox="0 0 20 21" fill="none" xmlns="http://www.w3.org/2000/svg">
<path d="M8.75 18C9.44036 18 10 17.4404 10 16.75C10 16.0596 9.44036 15.5 8.75 15.5C8.05964 15.5 7.5 16.0596 7.5 16.75C7.5 17.4404 8.05964 18 8.75 18Z" fill="black"/>
<path d="M14.5835 18C15.2739 18 15.8335 17.4404 15.8335 16.75C15.8335 16.0596 15.2739 15.5 14.5835 15.5C13.8931 15.5 13.3335 16.0596 13.3335 16.75C13.3335 17.4404 13.8931 18 14.5835 18Z" fill="black"/>
<path d="M10.8335 11.3333H12.5001V8.84165H14.9918V7.17498H12.5001V4.69165H10.8335V7.17498H8.3418V8.84165H10.8335V11.3333Z" fill="black"/>
<path d="M8.33317 14.6667H14.9998C15.1677 14.6662 15.3315 14.615 15.4698 14.5198C15.6081 14.4247 15.7144 14.29 15.7748 14.1333L18.1332 8H16.3498L14.4248 13H8.8915L5.14984 4.025C5.02297 3.72089 4.80881 3.4612 4.53441 3.27876C4.26001 3.09632 3.93769 2.99932 3.60817 3H1.6665V4.66667H3.60817L7.5665 14.15C7.62902 14.3022 7.73519 14.4325 7.87162 14.5244C8.00805 14.6163 8.16865 14.6658 8.33317 14.6667Z" fill="black"/>
</svg>
