<svg width="214" height="213" viewBox="0 0 214 213" fill="none" xmlns="http://www.w3.org/2000/svg">
<path opacity="0.46" fill-rule="evenodd" clip-rule="evenodd" d="M137.44 119.875C148.079 119.875 153.456 132.692 146.002 140.283L98.1443 189.019C93.5026 193.746 93.5696 201.34 98.294 205.984L100.938 208.583C105.666 213.231 113.267 213.164 117.912 208.433L210.244 114.408C214.828 109.74 214.828 102.26 210.244 97.5922L118.062 3.71947C113.359 -1.07025 105.641 -1.07013 100.938 3.71975L98.6455 6.05441C94.0766 10.7075 94.0599 18.1576 98.608 22.831L146.22 71.7559C153.621 79.3613 148.232 92.125 137.62 92.125H12.5C5.87257 92.125 0.5 97.4976 0.5 104.125V107.875C0.5 114.502 5.87258 119.875 12.5 119.875H137.44Z" fill="black" fill-opacity="0.3"/>
</svg>
