<svg width="29" height="30" viewBox="0 0 29 30" fill="none" xmlns="http://www.w3.org/2000/svg">
<path d="M24.4207 17.8978C24.7526 17.8979 25.0756 17.7952 25.3405 17.6053C25.6055 17.4153 25.798 17.1485 25.889 16.8453L28.9416 6.69652C29.0063 6.48076 29.0174 6.25368 28.9741 6.03315C28.9307 5.81261 28.8341 5.60465 28.6917 5.42561C28.5494 5.24657 28.3653 5.10135 28.1539 5.00138C27.9424 4.9014 27.7095 4.84939 27.4733 4.84945H7.28042L6.37228 1.58011C6.28633 1.27055 6.09493 0.996709 5.82794 0.80132C5.56095 0.605931 5.23339 0.499981 4.89635 0.5H1.52629C1.1215 0.5 0.733277 0.652748 0.447041 0.924642C0.160805 1.19654 0 1.5653 0 1.94982C0 2.33433 0.160805 2.7031 0.447041 2.97499C0.733277 3.24689 1.1215 3.39964 1.52629 3.39964H3.72111L4.63688 6.66898V6.68348V6.69652L7.68947 16.8453L8.82808 21.1744C8.0743 21.4919 7.42475 21.9968 6.94803 22.6359C6.47131 23.2749 6.1851 24.0244 6.11963 24.8052C6.05416 25.586 6.21186 26.369 6.57608 27.0717C6.94029 27.7744 7.4975 28.3707 8.18888 28.7975C8.88025 29.2243 9.68013 29.4658 10.504 29.4966C11.328 29.5274 12.1454 29.3463 12.8699 28.9724C13.5944 28.5985 14.1992 28.0457 14.6204 27.3724C15.0416 26.699 15.2636 25.9302 15.2629 25.1469C15.2579 24.6519 15.1629 24.1614 14.9821 23.6971H18.5964C18.4156 24.1614 18.3206 24.6519 18.3155 25.1469C18.3155 26.0072 18.5841 26.8481 19.0872 27.5633C19.5903 28.2786 20.3055 28.8361 21.1421 29.1653C21.9788 29.4945 22.8995 29.5806 23.7877 29.4128C24.6759 29.245 25.4918 28.8307 26.1322 28.2224C26.7725 27.6142 27.2086 26.8392 27.3853 25.9955C27.562 25.1517 27.4713 24.2772 27.1247 23.4824C26.7782 22.6877 26.1913 22.0084 25.4383 21.5305C24.6853 21.0525 23.8 20.7975 22.8944 20.7975H11.8746L11.1114 17.8978H24.4207ZM12.2104 25.1469C12.2104 25.4337 12.1208 25.714 11.9531 25.9524C11.7854 26.1908 11.547 26.3766 11.2681 26.4864C10.9893 26.5961 10.6824 26.6248 10.3863 26.5689C10.0902 26.5129 9.81826 26.3749 9.6048 26.1721C9.39135 25.9693 9.24598 25.711 9.18709 25.4298C9.1282 25.1485 9.15842 24.857 9.27395 24.5921C9.38947 24.3272 9.5851 24.1007 9.83609 23.9414C10.0871 23.7821 10.3822 23.6971 10.6841 23.6971C11.0889 23.6971 11.4771 23.8498 11.7633 24.1217C12.0495 24.3936 12.2104 24.7624 12.2104 25.1469ZM22.8944 26.5967C22.5925 26.5967 22.2974 26.5117 22.0464 26.3524C21.7954 26.1931 21.5998 25.9667 21.4843 25.7017C21.3688 25.4368 21.3386 25.1453 21.3974 24.8641C21.4563 24.5828 21.6017 24.3245 21.8152 24.1217C22.0286 23.919 22.3006 23.7809 22.5966 23.725C22.8927 23.669 23.1996 23.6977 23.4785 23.8075C23.7574 23.9172 23.9958 24.103 24.1635 24.3414C24.3312 24.5799 24.4207 24.8602 24.4207 25.1469C24.4207 25.5314 24.2599 25.9002 23.9737 26.1721C23.6874 26.444 23.2992 26.5967 22.8944 26.5967Z" fill="#727070"/>
</svg>
