<svg width="16" height="16" viewBox="0 0 16 16" fill="none" xmlns="http://www.w3.org/2000/svg">
<path d="M8 0C6.41775 0 4.87103 0.469192 3.55544 1.34824C2.23985 2.22729 1.21447 3.47672 0.608967 4.93853C0.00346627 6.40034 -0.15496 8.00887 0.153721 9.56072C0.462403 11.1126 1.22433 12.538 2.34315 13.6569C3.46197 14.7757 4.88743 15.5376 6.43928 15.8463C7.99113 16.155 9.59966 15.9965 11.0615 15.391C12.5233 14.7855 13.7727 13.7602 14.6518 12.4446C15.5308 11.129 16 9.58225 16 8C15.9977 5.87898 15.1541 3.8455 13.6543 2.34572C12.1545 0.845932 10.121 0.00232928 8 0ZM11.1856 11.1856C11.0356 11.3356 10.8321 11.4198 10.62 11.4198C10.4079 11.4198 10.2044 11.3356 10.0544 11.1856L7.4352 8.5664C7.28556 8.41575 7.20109 8.21234 7.2 8V4.8C7.2 4.58783 7.28429 4.38434 7.43432 4.23431C7.58435 4.08428 7.78783 4 8 4C8.21218 4 8.41566 4.08428 8.56569 4.23431C8.71572 4.38434 8.8 4.58783 8.8 4.8V7.6688L11.1856 10.0544C11.3356 10.2044 11.4198 10.4079 11.4198 10.62C11.4198 10.8321 11.3356 11.0356 11.1856 11.1856Z" fill="#1F2A37"/>
</svg>
