<svg width="15" height="16" viewBox="0 0 15 16" fill="none" xmlns="http://www.w3.org/2000/svg">
<path d="M10.4998 13.4167C9.50919 13.4176 8.53739 13.1459 7.69079 12.6315C6.84419 12.1171 6.15541 11.3797 5.69984 10.5H9.98317C10.2998 10.5 10.5915 10.325 10.7248 10.0417C10.9998 9.49167 10.5998 8.83333 9.98317 8.83333H5.14984C5.10817 8.55833 5.08317 8.28333 5.08317 8C5.08317 7.71667 5.10817 7.44167 5.14984 7.16667H9.98317C10.2998 7.16667 10.5915 6.99167 10.7248 6.70833C10.7903 6.58164 10.8219 6.44021 10.8166 6.29772C10.8113 6.15524 10.7694 6.01652 10.6948 5.895C10.6202 5.77348 10.5155 5.67327 10.3908 5.60407C10.2662 5.53488 10.1258 5.49903 9.98317 5.5H5.69984C6.15615 4.62093 6.84509 3.88404 7.69153 3.36971C8.53797 2.85538 9.50939 2.58336 10.4998 2.58333C11.5415 2.58333 12.5165 2.88333 13.3498 3.39167C13.7665 3.65 14.3082 3.60833 14.6582 3.25833C15.1415 2.775 15.0332 1.98333 14.4498 1.625C13.263 0.890991 11.8953 0.501482 10.4998 0.5C7.23317 0.5 4.4665 2.59167 3.43317 5.5H1.0165C0.699838 5.5 0.408171 5.675 0.266504 5.95833C-0.00849567 6.51667 0.391504 7.16667 1.0165 7.16667H3.04984C2.98266 7.72019 2.98266 8.27981 3.04984 8.83333H1.0165C0.699838 8.83333 0.408171 9.00833 0.274838 9.29167C-0.00849567 9.85 0.391504 10.5 1.0165 10.5H3.43317C4.4665 13.4083 7.23317 15.5 10.4998 15.5C11.9498 15.5 13.2998 15.0917 14.4498 14.375C15.0248 14.0167 15.1332 13.2167 14.6498 12.7333C14.2998 12.3833 13.7582 12.3417 13.3415 12.6083C12.5165 13.125 11.5498 13.4167 10.4998 13.4167Z" fill="black"/>
</svg>
