<svg width="11" height="7" viewBox="0 0 11 7" fill="none" xmlns="http://www.w3.org/2000/svg">
<path d="M0.336914 0.505371C0.360124 0.508699 0.384133 0.51419 0.407227 0.523926L0.414062 0.527832C0.434195 0.537338 0.464961 0.556112 0.5 0.591309L0.628906 0.720215L5.51465 5.72021L10.4668 0.652832L10.5 0.620605C10.5562 0.565122 10.6254 0.53785 10.6914 0.535645L10.7344 0.538574C10.781 0.544628 10.8278 0.56379 10.8701 0.596191L10.9053 0.628418L10.9316 0.657715C10.9646 0.702264 10.9872 0.757882 10.9951 0.820801L10.998 0.85498L10.9951 0.912598C10.9861 0.981279 10.9587 1.04179 10.9199 1.08838L10.9023 1.10791L5.71973 6.41455C5.67118 6.464 5.60546 6.49364 5.53027 6.49756H5.50781L5.47949 6.49561C5.4264 6.4892 5.3825 6.46902 5.3457 6.44092L5.29688 6.396L1.54199 2.55127L1.55762 2.53857L0.0986328 1.07568C0.0651973 1.04193 0.0427539 1.00621 0.0283203 0.972168C0.0165464 0.944029 0.00710191 0.912874 0.00292969 0.880371L0 0.830566C0.000575837 0.786787 0.00953078 0.741872 0.0253906 0.70166C0.0428804 0.65801 0.0665537 0.622453 0.0908203 0.596191L0.0957031 0.592285C0.125079 0.562222 0.160297 0.539565 0.195312 0.524902L0.210938 0.51709C0.236868 0.508287 0.265216 0.503001 0.294922 0.502441L0.336914 0.505371Z" fill="#727070"/>
</svg>
