<svg width="35" height="45" viewBox="0 0 35 45" fill="none" xmlns="http://www.w3.org/2000/svg">
<path d="M31.6806 20.5C31.1056 19.75 30.4056 19.1 29.7556 18.45C28.0806 16.95 26.1806 15.875 24.5806 14.3C20.8556 10.65 20.0306 4.625 22.4056 0C20.0306 0.575 17.9556 1.875 16.1806 3.3C9.70564 8.5 7.15564 17.675 10.2056 25.55C10.3056 25.8 10.4056 26.05 10.4056 26.375C10.4056 26.925 10.0306 27.425 9.53064 27.625C8.95564 27.875 8.35564 27.725 7.88064 27.325C7.73875 27.2061 7.62009 27.062 7.53064 26.9C4.70564 23.325 4.25564 18.2 6.15564 14.1C1.98064 17.5 -0.294358 23.25 0.0306418 28.675C0.180642 29.925 0.330642 31.175 0.755642 32.425C1.10564 33.925 1.78064 35.425 2.53064 36.75C5.23064 41.075 9.90564 44.175 14.9306 44.8C20.2806 45.475 26.0056 44.5 30.1056 40.8C34.6806 36.65 36.2806 30 33.9306 24.3L33.6056 23.65C33.0806 22.5 31.6806 20.5 31.6806 20.5ZM23.7806 36.25C23.0806 36.85 21.9306 37.5 21.0306 37.75C18.2306 38.75 15.4306 37.35 13.7806 35.7C16.7556 35 18.5306 32.8 19.0556 30.575C19.4806 28.575 18.6806 26.925 18.3556 25C18.0556 23.15 18.1056 21.575 18.7806 19.85C19.2556 20.8 19.7556 21.75 20.3556 22.5C22.2806 25 25.3056 26.1 25.9556 29.5C26.0556 29.85 26.1056 30.2 26.1056 30.575C26.1806 32.625 25.2806 34.875 23.7806 36.25Z" fill="black"/>
</svg>
