<svg width="17" height="17" viewBox="0 0 17 17" fill="none" xmlns="http://www.w3.org/2000/svg">
<path d="M4.24992 13.4584H6.37492V9.91675C6.37492 9.71605 6.44292 9.54794 6.57892 9.41241C6.71492 9.27689 6.88303 9.20889 7.08325 9.20841H9.91658C10.1173 9.20841 10.2856 9.27641 10.4216 9.41241C10.5576 9.54841 10.6254 9.71653 10.6249 9.91675V13.4584H12.7499V7.08341L8.49992 3.89591L4.24992 7.08341V13.4584ZM2.83325 13.4584V7.08341C2.83325 6.85911 2.88354 6.64661 2.98413 6.44591C3.08471 6.24522 3.22331 6.07994 3.39992 5.95008L7.64992 2.76258C7.89784 2.57369 8.18117 2.47925 8.49992 2.47925C8.81867 2.47925 9.102 2.57369 9.34992 2.76258L13.5999 5.95008C13.777 6.07994 13.9158 6.24522 14.0164 6.44591C14.117 6.64661 14.1671 6.85911 14.1666 7.08341V13.4584C14.1666 13.848 14.0278 14.1816 13.7501 14.4593C13.4724 14.737 13.139 14.8756 12.7499 14.8751H9.91658C9.71589 14.8751 9.54778 14.8071 9.41225 14.6711C9.27672 14.5351 9.20872 14.367 9.20825 14.1667V10.6251H7.79158V14.1667C7.79158 14.3674 7.72359 14.5358 7.58758 14.6718C7.45159 14.8078 7.28347 14.8756 7.08325 14.8751H4.24992C3.86034 14.8751 3.52695 14.7365 3.24975 14.4593C2.97256 14.1821 2.83372 13.8485 2.83325 13.4584Z" fill="black"/>
</svg>
