<svg width="33" height="34" viewBox="0 0 33 34" fill="none" xmlns="http://www.w3.org/2000/svg">
<path d="M22.6799 5.43604C20.0196 5.43604 17.7464 7.33227 16.4975 8.63957C15.2485 7.33227 12.9804 5.43604 10.3214 5.43604C5.73818 5.43604 2.53845 8.63069 2.53845 13.2037C2.53845 18.2426 6.51241 21.4994 10.3569 24.6497C12.1719 26.1385 14.0504 27.6768 15.491 29.3826C15.7334 29.6682 16.0888 29.8332 16.4619 29.8332H16.5355C16.91 29.8332 17.2641 29.6669 17.5052 29.3826C18.9483 27.6768 20.8255 26.1372 22.6418 24.6497C26.485 21.5007 30.4615 18.2438 30.4615 13.2037C30.4615 8.63069 27.2618 5.43604 22.6799 5.43604Z" fill="#727070"/>
</svg>
