<svg width="18" height="16" viewBox="0 0 18 16" fill="none" xmlns="http://www.w3.org/2000/svg">
<path d="M9 0C7.47944 0.010846 6.01911 0.551899 4.91002 1.51534C3.80093 2.47879 3.12451 3.79388 3.01555 5.19857C2.90659 6.60326 3.3731 7.99439 4.3221 9.09477C5.27111 10.1951 6.63293 10.924 8.13621 11.136V15.2C8.13621 15.4122 8.22721 15.6157 8.38921 15.7657C8.5512 15.9157 8.77091 16 9 16C9.22909 16 9.4488 15.9157 9.61079 15.7657C9.77279 15.6157 9.86379 15.4122 9.86379 15.2V11.136C11.3671 10.924 12.7289 10.1951 13.6779 9.09477C14.6269 7.99439 15.0934 6.60326 14.9844 5.19857C14.8755 3.79388 14.1991 2.47879 13.09 1.51534C11.9809 0.551899 10.5206 0.010846 9 0ZM9 4.4C8.65636 4.4 8.3268 4.52643 8.08381 4.75147C7.84082 4.97652 7.70431 5.28174 7.70431 5.6C7.70431 5.81217 7.6133 6.01566 7.45131 6.16569C7.28932 6.31571 7.06961 6.4 6.84052 6.4C6.61142 6.4 6.39171 6.31571 6.22972 6.16569C6.06773 6.01566 5.97672 5.81217 5.97672 5.6C5.97672 4.85739 6.29524 4.1452 6.86222 3.6201C7.42919 3.095 8.19818 2.8 9 2.8C9.22909 2.8 9.4488 2.88429 9.61079 3.03431C9.77279 3.18434 9.86379 3.38783 9.86379 3.6C9.86379 3.81217 9.77279 4.01566 9.61079 4.16569C9.4488 4.31571 9.22909 4.4 9 4.4Z" fill="#1F2A37"/>
</svg>
