<svg width="20" height="21" viewBox="0 0 20 21" fill="none" xmlns="http://www.w3.org/2000/svg">
<g clip-path="url(#clip0_66_517)">
<path d="M3.49992 11.3333C3.24621 11.3303 2.99768 11.4052 2.78779 11.5477C2.57789 11.6903 2.41671 11.8937 2.32593 12.1306C2.23515 12.3676 2.21914 12.6266 2.28004 12.8729C2.34095 13.1192 2.47585 13.341 2.66658 13.5083V14.6666C2.66658 14.8876 2.75438 15.0996 2.91066 15.2559C3.06694 15.4122 3.2789 15.5 3.49992 15.5C3.72093 15.5 3.93289 15.4122 4.08917 15.2559C4.24545 15.0996 4.33325 14.8876 4.33325 14.6666V13.5083C4.52399 13.341 4.65889 13.1192 4.7198 12.8729C4.7807 12.6266 4.76469 12.3676 4.67391 12.1306C4.58313 11.8937 4.42194 11.6903 4.21205 11.5477C4.00216 11.4052 3.75363 11.3303 3.49992 11.3333ZM7.66658 7.99996V6.33329C7.66658 5.22822 7.2276 4.16842 6.4462 3.38701C5.66479 2.60561 4.60499 2.16663 3.49992 2.16663C2.39485 2.16663 1.33504 2.60561 0.55364 3.38701C-0.227761 4.16842 -0.666748 5.22822 -0.666748 6.33329V7.99996C-1.32979 7.99996 -1.96567 8.26335 -2.43451 8.73219C-2.90336 9.20103 -3.16675 9.83692 -3.16675 10.5V16.3333C-3.16675 16.9963 -2.90336 17.6322 -2.43451 18.1011C-1.96567 18.5699 -1.32979 18.8333 -0.666748 18.8333H7.66658C8.32963 18.8333 8.96551 18.5699 9.43435 18.1011C9.90319 17.6322 10.1666 16.9963 10.1666 16.3333V10.5C10.1666 9.83692 9.90319 9.20103 9.43435 8.73219C8.96551 8.26335 8.32963 7.99996 7.66658 7.99996ZM0.999918 6.33329C0.999918 5.67025 1.26331 5.03437 1.73215 4.56553C2.20099 4.09668 2.83688 3.83329 3.49992 3.83329C4.16296 3.83329 4.79884 4.09668 5.26769 4.56553C5.73653 5.03437 5.99992 5.67025 5.99992 6.33329V7.99996H0.999918V6.33329ZM8.49992 16.3333C8.49992 16.5543 8.41212 16.7663 8.25584 16.9225C8.09956 17.0788 7.8876 17.1666 7.66658 17.1666H-0.666748C-0.887762 17.1666 -1.09972 17.0788 -1.256 16.9225C-1.41228 16.7663 -1.50008 16.5543 -1.50008 16.3333V10.5C-1.50008 10.2789 -1.41228 10.067 -1.256 9.9107C-1.09972 9.75442 -0.887762 9.66663 -0.666748 9.66663H7.66658C7.8876 9.66663 8.09956 9.75442 8.25584 9.9107C8.41212 10.067 8.49992 10.2789 8.49992 10.5V16.3333Z" fill="black"/>
</g>
<defs>
<clipPath id="clip0_66_517">
<rect width="20" height="20" fill="white" transform="translate(0 0.5)"/>
</clipPath>
</defs>
</svg>
