<svg width="276" height="27" viewBox="0 0 276 27" fill="none" xmlns="http://www.w3.org/2000/svg" xmlns:xlink="http://www.w3.org/1999/xlink">
<path d="M14.4451 26.36C12.4771 26.36 10.6651 26.048 9.00906 25.424C7.37706 24.776 5.94906 23.876 4.72506 22.724C3.50106 21.548 2.55306 20.168 1.88106 18.584C1.20906 17 0.873063 15.272 0.873063 13.4C0.873063 11.528 1.20906 9.8 1.88106 8.216C2.55306 6.632 3.50106 5.264 4.72506 4.112C5.97306 2.936 7.42506 2.036 9.08106 1.412C10.7371 0.763999 12.5491 0.439999 14.5171 0.439999C16.6531 0.439999 18.5731 0.787998 20.2771 1.484C22.0051 2.18 23.4571 3.2 24.6331 4.544L21.6811 7.424C20.6971 6.44 19.6291 5.72 18.4771 5.264C17.3491 4.784 16.1011 4.544 14.7331 4.544C13.4131 4.544 12.1891 4.76 11.0611 5.192C9.93306 5.624 8.96106 6.236 8.14506 7.028C7.32906 7.82 6.69306 8.756 6.23706 9.836C5.80506 10.916 5.58906 12.104 5.58906 13.4C5.58906 14.672 5.80506 15.848 6.23706 16.928C6.69306 18.008 7.32906 18.956 8.14506 19.772C8.96106 20.564 9.92106 21.176 11.0251 21.608C12.1291 22.04 13.3531 22.256 14.6971 22.256C15.9451 22.256 17.1451 22.064 18.2971 21.68C19.4731 21.272 20.5891 20.6 21.6451 19.664L24.3091 23.156C22.9891 24.212 21.4531 25.016 19.7011 25.568C17.9731 26.096 16.2211 26.36 14.4451 26.36ZM19.8811 22.544V13.112H24.3091V23.156L19.8811 22.544ZM26.9177 26L38.2577 0.799998H42.8657L54.2417 26H49.3457L39.5897 3.284H41.4617L31.7417 26H26.9177ZM32.1377 20.168L33.3977 16.496H47.0057L48.2657 20.168H32.1377ZM57.4465 26V0.799998H68.4625C71.1985 0.799998 73.5985 1.328 75.6625 2.384C77.7265 3.44 79.3345 4.904 80.4865 6.776C81.6385 8.648 82.2145 10.856 82.2145 13.4C82.2145 15.92 81.6385 18.128 80.4865 20.024C79.3345 21.896 77.7265 23.36 75.6625 24.416C73.5985 25.472 71.1985 26 68.4625 26H57.4465ZM62.1265 22.04H68.2465C70.1425 22.04 71.7745 21.68 73.1425 20.96C74.5345 20.24 75.6025 19.232 76.3465 17.936C77.1145 16.64 77.4985 15.128 77.4985 13.4C77.4985 11.648 77.1145 10.136 76.3465 8.864C75.6025 7.568 74.5345 6.56 73.1425 5.84C71.7745 5.12 70.1425 4.76 68.2465 4.76H62.1265V22.04ZM98.9607 26.36C96.9927 26.36 95.1807 26.048 93.5247 25.424C91.8927 24.776 90.4647 23.876 89.2407 22.724C88.0167 21.548 87.0687 20.168 86.3967 18.584C85.7247 17 85.3887 15.272 85.3887 13.4C85.3887 11.528 85.7247 9.8 86.3967 8.216C87.0687 6.632 88.0167 5.264 89.2407 4.112C90.4887 2.936 91.9407 2.036 93.5967 1.412C95.2527 0.763999 97.0647 0.439999 99.0327 0.439999C101.169 0.439999 103.089 0.787998 104.793 1.484C106.521 2.18 107.973 3.2 109.149 4.544L106.197 7.424C105.213 6.44 104.145 5.72 102.993 5.264C101.865 4.784 100.617 4.544 99.2487 4.544C97.9287 4.544 96.7047 4.76 95.5767 5.192C94.4487 5.624 93.4767 6.236 92.6607 7.028C91.8447 7.82 91.2087 8.756 90.7527 9.836C90.3207 10.916 90.1047 12.104 90.1047 13.4C90.1047 14.672 90.3207 15.848 90.7527 16.928C91.2087 18.008 91.8447 18.956 92.6607 19.772C93.4767 20.564 94.4367 21.176 95.5407 21.608C96.6447 22.04 97.8687 22.256 99.2127 22.256C100.461 22.256 101.661 22.064 102.813 21.68C103.989 21.272 105.105 20.6 106.161 19.664L108.825 23.156C107.505 24.212 105.969 25.016 104.217 25.568C102.489 26.096 100.737 26.36 98.9607 26.36ZM104.397 22.544V13.112H108.825V23.156L104.397 22.544ZM119.317 11.276H131.845V15.128H119.317V11.276ZM119.677 22.076H133.897V26H114.997V0.799998H133.393V4.724H119.677V22.076ZM144.226 26V4.76H135.874V0.799998H157.258V4.76H148.906V26H144.226ZM160.771 26V0.799998H171.139C173.371 0.799998 175.279 1.16 176.863 1.88C178.471 2.6 179.707 3.632 180.571 4.976C181.435 6.32 181.867 7.916 181.867 9.764C181.867 11.612 181.435 13.208 180.571 14.552C179.707 15.872 178.471 16.892 176.863 17.612C175.279 18.308 173.371 18.656 171.139 18.656H163.363L165.451 16.532V26H160.771ZM177.259 26L170.887 16.856H175.891L182.299 26H177.259ZM165.451 17.036L163.363 14.804H170.923C172.987 14.804 174.535 14.36 175.567 13.472C176.623 12.584 177.151 11.348 177.151 9.764C177.151 8.156 176.623 6.92 175.567 6.056C174.535 5.192 172.987 4.76 170.923 4.76H163.363L165.451 2.456V17.036ZM198.911 26.36C196.943 26.36 195.131 26.036 193.475 25.388C191.819 24.74 190.379 23.84 189.155 22.688C187.931 21.512 186.983 20.144 186.311 18.584C185.639 17 185.303 15.272 185.303 13.4C185.303 11.528 185.639 9.812 186.311 8.252C186.983 6.668 187.931 5.3 189.155 4.148C190.379 2.972 191.819 2.06 193.475 1.412C195.131 0.763999 196.931 0.439999 198.875 0.439999C200.843 0.439999 202.643 0.763999 204.275 1.412C205.931 2.06 207.371 2.972 208.595 4.148C209.819 5.3 210.767 6.668 211.439 8.252C212.111 9.812 212.447 11.528 212.447 13.4C212.447 15.272 212.111 17 211.439 18.584C210.767 20.168 209.819 21.536 208.595 22.688C207.371 23.84 205.931 24.74 204.275 25.388C202.643 26.036 200.855 26.36 198.911 26.36ZM198.875 22.256C200.147 22.256 201.323 22.04 202.403 21.608C203.483 21.176 204.419 20.564 205.211 19.772C206.003 18.956 206.615 18.02 207.047 16.964C207.503 15.884 207.731 14.696 207.731 13.4C207.731 12.104 207.503 10.928 207.047 9.872C206.615 8.792 206.003 7.856 205.211 7.064C204.419 6.248 203.483 5.624 202.403 5.192C201.323 4.76 200.147 4.544 198.875 4.544C197.603 4.544 196.427 4.76 195.347 5.192C194.291 5.624 193.355 6.248 192.539 7.064C191.747 7.856 191.123 8.792 190.667 9.872C190.235 10.928 190.019 12.104 190.019 13.4C190.019 14.672 190.235 15.848 190.667 16.928C191.123 18.008 191.747 18.956 192.539 19.772C193.331 20.564 194.267 21.176 195.347 21.608C196.427 22.04 197.603 22.256 198.875 22.256ZM229.215 26.36C227.247 26.36 225.435 26.036 223.779 25.388C222.123 24.74 220.683 23.84 219.459 22.688C218.235 21.512 217.287 20.144 216.615 18.584C215.943 17 215.607 15.272 215.607 13.4C215.607 11.528 215.943 9.812 216.615 8.252C217.287 6.668 218.235 5.3 219.459 4.148C220.683 2.972 222.123 2.06 223.779 1.412C225.435 0.763999 227.235 0.439999 229.179 0.439999C231.147 0.439999 232.947 0.763999 234.579 1.412C236.235 2.06 237.675 2.972 238.899 4.148C240.123 5.3 241.071 6.668 241.743 8.252C242.415 9.812 242.751 11.528 242.751 13.4C242.751 15.272 242.415 17 241.743 18.584C241.071 20.168 240.123 21.536 238.899 22.688C237.675 23.84 236.235 24.74 234.579 25.388C232.947 26.036 231.159 26.36 229.215 26.36ZM229.179 22.256C230.451 22.256 231.627 22.04 232.707 21.608C233.787 21.176 234.723 20.564 235.515 19.772C236.307 18.956 236.919 18.02 237.351 16.964C237.807 15.884 238.035 14.696 238.035 13.4C238.035 12.104 237.807 10.928 237.351 9.872C236.919 8.792 236.307 7.856 235.515 7.064C234.723 6.248 233.787 5.624 232.707 5.192C231.627 4.76 230.451 4.544 229.179 4.544C227.907 4.544 226.731 4.76 225.651 5.192C224.595 5.624 223.659 6.248 222.843 7.064C222.051 7.856 221.427 8.792 220.971 9.872C220.539 10.928 220.323 12.104 220.323 13.4C220.323 14.672 220.539 15.848 220.971 16.928C221.427 18.008 222.051 18.956 222.843 19.772C223.635 20.564 224.571 21.176 225.651 21.608C226.731 22.04 227.907 22.256 229.179 22.256ZM247.712 26V0.799998H251.564L262.58 19.196H260.564L271.4 0.799998H275.252L275.288 26H270.86L270.824 7.748H271.76L262.544 23.12H260.456L251.096 7.748H252.176V26H247.712Z" fill="url(#pattern0_2013_367)"/>
<defs>
<pattern id="pattern0_2013_367" patternUnits="userSpaceOnUse" patternTransform="matrix(27.0474 0 0 33.9618 -3.099 -9.33973)" preserveAspectRatio="none" viewBox="-5.11951 -0.828613 65.9692 82.8335" width="1" height="1">
<use xlink:href="#pattern0_2013_367_inner" transform="translate(-197.908 -82.8335)"/>
<use xlink:href="#pattern0_2013_367_inner" transform="translate(-131.938 -82.8335)"/>
<use xlink:href="#pattern0_2013_367_inner" transform="translate(-65.9692 -82.8335)"/>
<use xlink:href="#pattern0_2013_367_inner" transform="translate(0 -82.8335)"/>
<use xlink:href="#pattern0_2013_367_inner" transform="translate(-164.923 -41.4168)"/>
<use xlink:href="#pattern0_2013_367_inner" transform="translate(-98.9538 -41.4168)"/>
<use xlink:href="#pattern0_2013_367_inner" transform="translate(-32.9846 -41.4168)"/>
<use xlink:href="#pattern0_2013_367_inner" transform="translate(32.9846 -41.4168)"/>
<use xlink:href="#pattern0_2013_367_inner" transform="translate(-197.908 0)"/>
<use xlink:href="#pattern0_2013_367_inner" transform="translate(-131.938 0)"/>
<use xlink:href="#pattern0_2013_367_inner" transform="translate(-65.9692 0)"/>
<g id="pattern0_2013_367_inner">
<path d="M-5.09805 65.9297C-4.75824 65.3337 -3.93728 65.007 -3.20996 64.8846C-2.98282 64.8454 -2.74474 65.3007 -2.57377 65.2914C-2.23934 65.2722 -2.19857 64.9213 -1.84245 64.9332C-1.72283 64.939 -1.30751 65.6291 -1.19361 65.621C-0.575657 65.5745 -0.324748 65.1109 0.184613 64.9186C2.70023 63.9676 4.85722 62.641 7.11854 61.3421C7.86434 60.9126 9.12432 60.8532 9.62726 60.0671C9.68525 59.975 9.2102 59.4571 9.19044 59.3995C8.89495 58.5124 9.67557 59.6951 9.9494 59.7216C11.0275 59.8287 11.7657 59.3459 12.2092 58.6691C12.396 58.38 11.2962 57.4692 12.0271 57.8941C12.077 57.9225 12.4617 58.564 12.58 58.5736C12.8465 58.5951 13.076 58.2542 13.2326 58.2095C13.5418 58.1223 13.5771 58.0863 13.8109 57.92C13.8259 57.9098 13.8414 57.9 13.8575 57.8906C14.181 57.7041 14.7374 57.6963 14.9525 57.3329C15.0003 57.2491 14.4479 56.7111 14.4829 56.5223C14.5175 56.3341 14.8604 56.1568 15.0667 56.2265C15.2752 56.2946 15.5926 56.8055 15.6929 56.9018C16.5352 57.7185 15.9189 56.1736 15.94 56.1081C16.3438 54.9586 17.588 55.1682 18.3484 54.5938C18.92 54.1597 19.3557 53.4547 19.9297 53.0745C20.6113 52.627 21.4142 52.5389 22.0026 52.0053C22.0651 51.9498 21.4469 51.2937 21.5221 51.2245C22.3261 50.486 23.2377 49.9171 24.4625 49.7441C24.5856 49.7275 24.952 50.4376 25.1036 50.4584C26.0234 50.5705 27.8034 51.1639 26.0274 48.2083C26.4623 48.0431 26.9798 47.8191 27.7168 48.1227C28.1929 48.3166 28.5177 49.1487 28.5463 48.6645C28.5534 48.5561 28.0205 48.0192 28.0657 47.9015C28.2573 47.4062 28.7923 47.3004 28.9105 46.7174C28.9332 46.5976 28.5004 46.0822 28.4463 45.9707C28.0133 45.065 29.2922 46.1243 29.427 46.1686C30.4421 46.4914 30.5683 45.9537 31.0227 45.6246C31.1283 45.5486 30.4498 44.9326 30.5312 44.834C30.9544 44.3374 31.53 43.9825 32.2707 43.9076C32.4375 43.8921 32.8139 44.5756 32.9181 44.599C33.3719 44.6947 32.5223 43.5133 32.9384 43.5839C33.025 43.5973 33.4085 44.1341 33.462 44.184C34.3018 44.9675 33.4166 43.6151 33.4287 43.5602C33.5607 42.8346 34.8869 43.9258 35.1577 43.4042C35.189 43.3404 34.5548 42.7804 34.6746 42.6411C35.4692 41.7097 36.5996 41.0904 37.9438 40.8543C38.152 40.8168 38.4456 41.3855 38.5033 41.438C39.4136 42.252 38.4871 40.9219 38.4953 40.8366C38.5896 40.1937 39.79 40.9618 38.8185 39.2683C40.8021 38.5015 41.6438 36.3898 44.284 36.4102C44.3164 36.4088 44.7966 37.0452 44.8592 37.0399C44.8714 37.039 44.8831 37.0378 44.8944 37.0365C45.5862 36.9565 44.7135 36.0949 44.0494 34.7046C43.8797 34.35 45.3023 35.537 45.4106 35.6205C45.8078 35.9301 46.4984 36.8977 46.5861 36.9484C47.2863 37.3367 44.7037 34.3926 44.9852 34.1494C44.9983 34.1468 45.4306 34.7256 45.501 34.7596C45.7214 34.867 45.6081 34.5868 45.8421 34.7128C46.3818 35.006 47.683 36.3968 47.2144 35.3386C47.1526 35.202 45.6534 33.5618 45.9734 33.4241C46.1022 33.3708 46.5218 32.9574 46.741 32.9578C46.9598 32.9583 47.3433 33.5733 47.3725 33.589C48.3297 34.0117 48.4587 34.4191 49.5469 35.3301C50.632 36.2366 48.3998 33.765 48.2242 33.425C48.0495 33.0859 48.8084 33.4604 49.0476 33.612C49.2867 33.7639 49.5102 34.1726 49.6651 34.2414C50.6834 34.6856 48.735 32.8594 48.5047 32.3588C47.9564 31.176 49.7971 32.8465 50.2105 32.8058C50.3221 32.7948 49.8953 32.4211 49.9215 32.3281C50.0302 31.9653 50.6843 32.4162 50.4913 31.6448C50.4602 31.5187 49.6991 30.2105 50.5631 30.9012C50.6873 31.001 51.0369 31.5133 51.2308 31.526C51.5211 31.5457 51.8865 31.402 51.9146 31.1023C51.9352 30.8808 51.1236 30.2451 51.4851 30.3456C51.6463 30.3907 51.9139 30.9462 52.1841 30.9937C52.4535 31.0418 52.761 30.7339 52.8708 30.6088C52.9801 30.4835 52.4015 29.9688 52.377 29.9212C52.2399 29.6459 52.2291 29.159 52.2505 29.1411C53.2371 28.1363 55.0712 28.2323 55.8022 26.994C55.8605 26.8975 55.2635 26.3438 55.2667 26.3228C55.3124 25.8236 56.5425 27.6186 57.2181 27.9809C56.0866 26.785 56.3994 26.9039 56.4708 26.5959C56.5043 26.4464 56.026 26.0197 55.9907 25.9637C55.4782 25.1219 56.413 25.962 56.6095 26.1292C57.3322 26.744 56.6847 25.8303 57.1693 26.2398C57.6509 26.6457 58.1297 27.4608 58.307 27.2839C57.9628 26.8006 56.7908 25.785 56.7632 25.473C56.6561 24.2958 58.4531 24.2921 58.9603 23.9978C59.4687 23.7027 59.5311 23.4978 59.9205 23.4296C60.6238 23.3068 59.69 22.6132 59.6115 21.9752C59.5336 21.3365 61.3023 23.5286 61.7511 23.9368C62.1991 24.3453 61.8208 23.8485 62.0942 24.0482C62.3674 24.2479 62.5408 24.6467 62.7391 24.6335C62.9375 24.6202 62.5201 23.5436 62.1329 23.0413C61.3109 21.9784 60.2184 21.075 60.8539 21.1603C60.8911 21.1658 61.3362 21.7608 61.4531 21.7546C62.3633 21.6888 62.9364 21.2064 63.8001 21.0915C63.9196 21.0765 64.4148 21.7387 64.4907 21.7368C65.2881 21.7141 64.1878 20.8439 63.3787 19.4935C64.7202 21.0446 65.7071 21.8392 66.0458 21.5405C66.2494 21.3619 65.6068 20.7372 65.3057 20.1554C65.2149 19.9801 65.7753 20.298 65.5138 19.9663C64.6594 18.8814 63.4769 17.878 64.235 18.0095C64.2698 18.0169 64.7363 18.6119 64.8189 18.5972C65.3542 18.5059 64.414 17.4146 64.6552 16.9503C64.8431 16.5873 65.9452 16.7575 66.3644 16.5597C67.9348 18.2459 67.8761 17.5773 66.9106 16.3045C67.1654 16.1542 67.3293 15.8767 67.6802 15.8479C67.8005 15.8375 68.2125 16.3658 68.2706 16.4101C69.1795 17.1075 68.2087 15.8985 68.2124 15.8118C68.3009 14.9189 69.4935 15.4039 69.1755 14.1287C69.1636 14.0832 68.0902 12.8953 69.0169 13.6273C69.0803 13.6783 69.4285 14.3515 69.6842 14.1869C69.9355 14.0267 70.947 14.2502 70.7346 13.4292C70.6835 13.2314 69.9743 12.1131 70.8234 12.7066C70.9383 12.7876 71.2328 13.141 71.4375 13.2989C72.0912 13.8005 71.0269 12.5801 72.0823 13.473C73.1381 14.3656 74.0705 14.8992 73.7257 13.9179C73.7165 13.8886 72.9045 12.8912 73.014 12.8148C73.1901 12.6932 73.5873 12.6834 73.745 12.5213C73.819 12.4444 73.2198 11.9157 73.2232 11.8924C73.4272 11.0806 74.2873 11.2401 75.046 10.9396C75.1891 10.883 74.7281 9.82061 75.5136 10.2564C76.3763 10.7308 78.8678 13.7579 78.7169 12.6113C78.6543 12.1547 75.4725 8.33426 77.6078 9.84491C77.6273 9.7545 77.655 9.67396 77.6895 9.60162C78.1019 8.75995 79.4146 8.94178 79.4652 7.72894C79.4692 7.66895 78.6055 6.57841 78.6917 6.52103C78.8216 6.43763 79.3309 6.84478 79.4364 6.80166C79.8994 6.62337 79.8051 5.94265 80.1782 5.69866C80.3176 5.60614 80.7386 6.12997 80.9104 6.01434C81.0805 5.89938 80.5546 5.18167 81.0423 5.29917C81.4184 5.38446 82.8157 6.53561 83.1596 6.49149C81.9221 5.21777 82.078 5.11585 81.9808 4.55293C81.9624 4.44326 81.4792 4.0518 81.448 3.97728C81.3113 3.66456 81.7504 3.95064 81.5857 3.62569C81.5464 3.54744 81.1204 3.11579 81.064 3.02765C80.5782 2.25168 81.7548 3.00538 81.9658 3.13044C82.7553 3.61711 82.2605 2.99648 82.6285 3.13074C82.9954 3.26596 83.137 3.75263 83.4243 3.76984C84.0144 3.80969 84.301 3.38117 84.6011 3.11397C84.715 3.00802 84.0618 2.51818 84.0647 2.48985C84.1485 2.11035 84.9968 2.47103 83.9582 1.22383C87.1302 3.93872 83.802 0.803404 84.7216 1.04262C84.7951 1.0628 86.2732 2.36879 86.3823 2.67602C86.4939 2.98016 85.8947 2.71712 86.0801 3.17625C86.128 3.27968 87.2635 4.76465 87.3193 4.86778C87.7367 5.6947 85.5972 3.66795 85.4704 3.56639C84.0962 2.4747 85.2938 4.09628 85.3274 4.25818C85.4968 4.98447 84.9621 4.9347 85.0473 5.48597C85.094 5.85058 86.4505 7.22348 86.2844 7.30569C85.7386 7.57381 83.7088 5.79478 84.9658 7.83427C85.2345 8.26856 86.7995 9.68795 85.3378 8.79947C85.241 8.74805 83.9697 7.87006 84.5132 8.68142C84.582 8.78349 85.0131 9.22178 85.028 9.27946C85.1165 9.66058 84.69 9.39281 84.6992 9.712C84.7054 10.0341 84.7753 10.4547 84.4527 10.4781C84.2576 10.4942 83.3264 9.80238 83.0817 9.64928C82.3793 9.20576 83.1484 10.3054 82.3772 9.69076C81.606 9.06931 80.7337 7.83514 80.0652 7.599C81.1697 8.75276 82.2926 9.94751 83.398 11.113C82.8421 11.5745 81.9982 11.6727 81.5293 12.2236C81.4721 12.2933 82.1332 12.8485 82.0898 12.9365C81.9522 13.2108 81.5403 13.1711 81.2822 13.3291C81.1977 13.3795 81.1312 13.4528 81.0995 13.5694C81.0063 13.9258 81.3759 14.8318 81.3001 15.2224C79.8889 14.0439 79.9549 14.8409 79.5853 14.964C79.4548 15.0093 79.1229 14.6513 78.9479 14.5984C78.2951 14.4085 79.5275 15.4643 79.6359 15.7125C80.0972 16.7728 77.55 14.1508 77.2725 14.5414C77.2578 14.5603 78.3808 16.1827 78.4366 16.2971C78.7941 17.0501 77.9367 15.8368 77.7186 15.8462C77.3195 15.8636 76.845 15.6733 76.9791 16.3343C77.0221 16.5269 77.6821 17.5758 76.8879 17.0349C76.7839 16.9642 76.3501 16.4878 76.3087 16.4752C75.5956 16.2863 76.9807 17.7618 77.2945 18.4093C77.6092 19.0559 76.3993 18.2786 76.0714 18.0347C75.2219 17.4052 75.8657 17.6161 75.8022 17.5354C75.0473 16.5747 75.0123 16.897 74.803 16.9541C73.4161 15.5346 73.3043 15.8052 74.5913 17.0193C74.7323 17.1515 74.7128 16.9147 74.803 16.9541C76.0217 18.4818 75.9822 18.8632 74.4976 17.7638C73.8014 17.249 73.2214 16.4288 73.1383 17.0088C73.0997 17.2716 74.0972 18.2087 74.2202 18.6053C74.5051 19.5062 73.2279 18.9599 73.0536 19.4008C72.9905 19.5607 73.6143 20.0002 73.5888 20.1283C73.5223 20.4703 72.9545 20.2346 72.9421 20.6413C72.9416 20.6789 73.5251 21.2047 73.4666 21.2736C73.0424 21.7984 72.2629 21.8432 71.7456 22.3097C71.4939 22.5374 71.3424 23.2712 71.0278 23.4466C70.4807 23.759 69.1568 23.4375 68.9627 23.9964C68.8335 24.3587 69.421 24.8817 69.6786 25.3708C70.1784 26.3186 68.5513 25.3019 68.3068 25.1374C68.299 25.1318 68.3879 24.797 67.9997 24.609C67.363 24.0574 68.3068 25.1325 68.3068 25.1374C68.1485 25.0316 67.597 25.3011 67.615 25.4884C67.6246 25.5912 68.1549 26.1113 68.1503 26.1546C68.0279 27.1736 67.5797 27.8449 66.7583 28.1303C66.7378 28.1288 66.1908 27.5044 66.1497 27.5084C65.5617 27.5486 66.0343 28.4933 66.1617 29.1949C66.2886 29.8966 65.9304 29.9514 64.8023 29.0529C64.7129 29.3782 63.9841 29.1916 63.5514 29.0694C63.1194 28.9467 64.1853 30.1609 64.1914 30.1986C64.4031 31.3897 63.4985 30.9633 62.9057 31.308C62.6217 31.4702 62.3069 32.0725 62.1693 32.4354C62.0618 32.7248 61.6853 32.555 61.6601 32.9041C61.6564 32.951 62.1645 33.4614 62.1753 33.4889C62.5426 34.3169 61.4644 32.9213 61.2106 32.7274C60.2881 32.0217 59.7844 31.6571 59.8769 32.2971C59.8978 32.444 61.4123 34.4873 61.398 34.6994C61.3765 34.9715 60.825 34.2469 60.8179 34.5489C60.8168 34.5742 61.1939 34.988 61.0821 35.0553C60.5688 35.3725 59.8694 35.5619 59.4464 36.015C59.3872 36.0753 60.0595 36.6655 59.9836 36.7636C59.6268 37.2234 59.1355 37.6167 58.4422 37.6763C58.2697 37.6888 57.9214 37.1666 57.7766 37.0483C56.8988 36.3338 57.7817 37.72 57.77 37.7717C57.5213 39.0336 55.9639 38.4482 55.6415 39.6605C55.6261 39.7285 56.4429 41.3259 55.3134 40.331C55.2379 40.2652 54.0887 39.2418 54.6464 40.1404C54.6813 40.1966 55.2887 40.7099 55.0776 40.7876C54.8669 40.8652 54.9561 41.4834 54.1723 41.0203C53.9249 40.8749 52.7639 39.866 53.3532 40.9617C53.3958 41.0369 54.8724 43.3893 53.5202 42.0546C53.2979 41.8346 52.0073 40.3011 52.4335 41.2906C52.5165 41.482 52.8942 41.7466 52.9521 42.0654C53.0419 42.556 52.4394 42.3663 52.7865 43.2449C52.8487 43.3998 53.5594 44.5824 52.7478 43.918C52.6207 43.814 52.2272 43.27 52.1046 43.2764C51.5185 43.3053 51.44 43.9605 50.7833 43.911C50.7633 43.9095 50.7403 43.9017 50.7148 43.8884C50.4436 43.7488 49.8881 43.0059 49.5959 42.9065C49.2761 42.7979 48.8307 42.8098 49.0121 43.3037C49.1934 43.7979 50.457 44.9872 50.3386 45.2678C49.8181 46.4912 48.2686 46.4689 47.2672 47.1069C47.1181 47.2018 47.6236 47.5841 47.432 47.758C46.733 48.3973 45.8202 49.894 44.3559 49.3948C43.1811 48.997 43.3218 47.8523 42.6608 47.8392C42.3439 47.8341 43.4028 49.5558 43.3967 49.642C43.3567 50.4994 42.485 50.062 42.2554 50.5965C42.2081 50.7072 42.7986 51.2747 42.7525 51.362C42.6009 51.6647 42.1171 51.5882 41.9274 51.825C41.8434 51.9329 42.2502 52.4019 42.1248 52.441C41.8292 52.5399 41.4653 52.4967 40.8783 52.221C40.8249 52.1957 40.481 51.4829 40.2937 51.5954C39.9909 51.7801 39.3002 51.5964 39.3504 52.3126C39.3674 52.5264 40.2438 53.6413 39.4346 53.0328C39.2654 52.9058 38.2628 51.528 38.9418 52.8667C39.055 53.0889 39.8895 54.9584 38.9027 54.1073C38.6431 53.8832 37.651 52.8909 37.6742 53.1512C37.6805 53.1907 38.2125 53.7414 38.1652 53.8731C37.9926 54.325 37.5919 54.5358 37.4017 54.9875C37.3515 55.1095 37.9716 55.6252 37.8812 55.7872C37.6335 56.2337 37.0416 56.4405 36.5291 56.5263C36.3373 56.5582 36.0302 55.97 35.9767 55.9215C35.1103 55.1312 35.9741 56.4353 35.9775 56.5478C35.9862 57.2303 35.2941 56.8393 35.1112 57.2256C35.06 57.3303 35.5733 57.8736 35.5973 57.9388C35.8225 58.5837 35.1334 57.4282 34.9356 57.3949C34.3796 57.2974 34.0794 57.604 33.831 57.9147C33.7407 58.0295 34.3923 58.6165 34.3051 58.7116C33.8003 59.2868 33.1288 59.6968 32.2549 59.7653C32.09 59.7764 31.7563 59.1957 31.6415 59.0925C30.8409 58.3686 31.4899 59.6937 31.5185 59.8452C31.6567 60.5312 31.2071 60.1353 31.0606 60.3843C30.3469 61.6121 28.8235 62.2754 27.6961 62.8232C26.2297 63.5401 24.8583 63.779 23.7447 64.8204C23.674 64.8855 24.2817 65.534 24.2275 65.5992C23.4964 66.4147 22.4473 66.7713 21.7516 67.6162C21.6937 67.6842 22.2986 68.277 22.2228 68.4084C22.1683 68.5069 22.093 68.5932 22.0011 68.6613C21.8331 68.7857 21.6123 68.8522 21.3617 68.8272C21.1718 68.8093 20.888 68.1227 20.7058 68.1165C20.28 68.1011 19.9572 68.2713 19.77 68.5824C19.6893 68.7179 20.3834 69.2661 20.2383 69.3889C19.2678 70.2343 18.366 71.1112 16.6636 71.0248C16.5465 71.019 15.4195 69.6898 15.4746 70.0693C15.759 70.4601 16.1075 70.9091 16.4187 71.3212C15.1161 72.6811 13.2985 73.3385 11.7765 74.428C11.7123 74.4742 12.3928 75.1117 12.2716 75.2047C11.5733 75.7421 11.0662 76.4745 9.78811 76.3255C9.6624 76.3115 8.68149 75.018 8.62807 75.3759C8.61937 75.4404 8.44509 75.8586 8.58517 76.1982C8.60763 76.2484 9.13972 76.7923 9.05352 76.8902C8.54466 77.4484 7.82706 77.8071 6.95333 77.9205C6.81152 77.9376 6.40291 77.2304 6.29747 77.2371C5.55212 77.2909 5.42165 78.1877 4.50361 77.9909C3.88704 77.8572 3.1195 76.6841 2.09027 75.7524C1.94499 75.621 1.73639 75.7514 1.22221 75.1403C-0.0712576 73.6041 -1.3684 71.825 -2.75794 70.1964C-3.05711 69.8455 -2.99693 70.437 -3.55056 69.451C-3.58718 69.3847 -3.6369 68.9483 -3.83027 68.6184C-3.96375 68.3901 -4.53357 67.8069 -4.68044 67.4951C-4.82708 67.1836 -4.32641 67.6537 -4.46779 67.262C-4.61221 66.8666 -5.24278 66.1886 -5.09805 65.9297ZM61.6161 28.5236C60.9321 28.0974 62.8222 30.2192 62.5392 29.5572C62.5233 29.5227 61.65 28.5441 61.6161 28.5236ZM80.503 10.1367C79.4313 9.42975 80.5699 10.8921 81.3876 11.4478C82.204 12.0033 80.8281 10.3508 80.503 10.1367ZM81.9845 7.42122C81.0592 6.94372 83.8346 9.86507 83.5202 9.03369C83.5027 8.98641 82.0382 7.44892 81.9845 7.42122ZM2.596 74.8364C2.56985 74.8091 2.4107 74.8912 2.43108 74.9228C2.92856 75.6815 3.24624 75.5169 2.596 74.8364ZM83.3738 4.65452C82.9194 4.33794 83.1492 4.99642 83.7188 5.38586C84.178 5.69835 83.9437 5.04385 83.3738 4.65452ZM51.1321 33.8423C51.1016 33.8127 50.9818 33.8671 51.1415 34.0454C51.6562 34.6193 51.6448 34.3399 51.1321 33.8423ZM86.8178 0.975532C86.1962 1.45977 83.4578 -0.481143 84.2331 -0.784025C84.3755 -0.84247 84.8305 0.142231 85.1716 0.209848C85.8055 0.318879 84.363 -1.20911 85.4345 -0.738379C85.6308 -0.652425 86.8601 0.951597 86.8204 0.979576C86.8195 0.978228 86.8186 0.976882 86.8178 0.975532ZM59.2239 26.0862C59.1954 26.0613 59.0423 26.1526 59.0643 26.1829C59.6019 26.9135 59.9109 26.7297 59.2239 26.0862ZM44.4316 37.3037C44.3724 37.249 44.0168 37.4519 44.0544 37.5165C44.8456 38.7794 45.5701 38.3705 44.4316 37.3037ZM66.4115 16.5998C65.9287 15.8084 66.0186 15.5773 66.9091 16.3042C66.7307 16.3889 66.5878 16.5109 66.4115 16.5998ZM13.5929 69.1998C13.9829 68.6942 14.7851 68.5435 15.4743 68.5703C15.6897 68.5776 15.8572 69.0616 16.0171 69.0864C16.3293 69.1344 16.4089 68.8054 16.7373 68.8872C16.8474 68.9165 17.1528 69.6603 17.2592 69.6751C17.8396 69.7512 18.1229 69.357 18.6184 69.2709C21.0578 68.8491 23.1975 67.9794 25.4275 67.131C26.1626 66.8505 27.3422 67.013 27.8834 66.3413C27.9461 66.2624 27.5517 65.6812 27.5386 65.6222C27.3448 64.7163 27.9623 65.9911 28.2137 66.0642C29.2135 66.3489 29.9409 66.0095 30.4169 65.4278C30.6171 65.1793 29.6708 64.1177 30.3165 64.6485C30.3606 64.684 30.6628 65.3675 30.7727 65.3962C31.0213 65.46 31.2592 65.1717 31.4121 65.1525C31.7101 65.1178 31.7466 65.0885 31.9777 64.9667C32.2971 64.8057 32.8469 64.9179 33.0955 64.5825C33.1479 64.5087 32.6764 63.9001 32.7257 63.7227C32.7754 63.5455 33.1074 63.4307 33.2972 63.5294C33.4872 63.628 33.7407 64.173 33.8265 64.2822C34.5474 65.2053 34.0982 63.6138 34.1227 63.5541C34.6034 62.5017 35.7485 62.9013 36.5123 62.4623C37.0856 62.1306 37.5605 61.5117 38.128 61.2351C38.8111 60.9048 39.5687 60.9473 40.1725 60.5199C40.2366 60.4756 39.7124 59.7431 39.7898 59.6874C40.6089 59.0983 41.5223 58.6873 42.6917 58.7136C42.8095 58.7168 43.0888 59.4637 43.23 59.5078C44.083 59.7637 45.702 60.6247 44.3084 57.4743C44.7308 57.3856 45.2428 57.2502 45.9081 57.6638C46.3371 57.9296 46.5642 58.788 46.6355 58.3248C46.652 58.2212 46.2028 57.6137 46.2558 57.5077C46.4795 57.0615 47.0042 57.0404 47.1659 56.4992C47.1981 56.3874 46.8419 55.8165 46.8018 55.6997C46.4812 54.7521 47.5871 55.9859 47.7086 56.0517C48.631 56.5333 48.802 56.0348 49.2647 55.7915C49.3713 55.7359 48.7955 55.0254 48.8817 54.9439C49.3302 54.5343 49.9119 54.2864 50.6147 54.3414C50.7722 54.3555 51.0565 55.0804 51.1516 55.1212C51.5661 55.2928 50.892 54.0033 51.2774 54.1423C51.3579 54.1699 51.6624 54.755 51.7076 54.8124C52.4166 55.7138 51.725 54.2542 51.7421 54.2031C51.9351 53.5286 53.0782 54.8068 53.3839 54.3525C53.4197 54.2966 52.884 53.6442 53.0102 53.5313C53.8634 52.7658 54.9794 52.3759 56.2769 52.3836C56.4752 52.3855 56.6896 52.9863 56.738 53.0473C57.501 53.9974 56.7774 52.5477 56.7954 52.4664C56.9216 51.9939 57.585 52.4752 57.52 51.8479C57.5037 51.6712 57.4302 51.4076 57.2713 51.0122C59.2086 50.6362 60.2064 48.7599 62.676 49.2397C62.7065 49.244 63.096 49.9394 63.1551 49.9452C63.8718 50.0204 63.1103 49.0382 62.6137 47.5607C62.4882 47.1901 63.7125 48.5751 63.8064 48.6739C64.1503 49.0395 64.7097 50.0875 64.7873 50.1513C65.4091 50.6436 63.2549 47.3731 63.5358 47.1901C63.5485 47.1897 63.9015 47.8198 63.965 47.8642C64.1635 48.0037 64.083 47.7146 64.2919 47.8748C64.7727 48.2472 65.8737 49.8012 65.5239 48.7068C65.4775 48.5653 64.2122 46.7388 64.5214 46.6614C64.6498 46.6298 65.0772 46.3019 65.2789 46.3404C65.4817 46.3782 65.7936 47.0305 65.8195 47.0505C66.6804 47.6144 66.7734 48.0238 67.7248 49.0734C68.6759 50.1167 66.7726 47.3837 66.6344 47.0289C66.4969 46.6749 67.1781 47.1574 67.3902 47.3416C67.6035 47.5253 67.7815 47.954 67.9231 48.0438C68.8547 48.6253 67.1553 46.5674 66.9769 46.0497C66.5492 44.8269 68.1482 46.7245 68.5487 46.742C68.6552 46.7478 68.2789 46.3242 68.3103 46.2386C68.4394 45.9048 69.015 46.443 68.8909 45.6672C68.8711 45.5404 68.2348 44.1728 69.003 44.9638C69.1137 45.0779 69.4127 45.6203 69.5932 45.6613C69.8636 45.7233 70.224 45.6313 70.2645 45.3487C70.2949 45.1394 69.5666 44.4143 69.8992 44.5629C70.0476 44.6293 70.2713 45.1993 70.5225 45.2829C70.7778 45.3636 71.0857 45.1074 71.1931 45.0031C71.3007 44.8983 70.7799 44.3263 70.7591 44.2774C70.6425 43.9949 70.6568 43.5236 70.6767 43.5099C71.6394 42.6809 73.3659 42.9886 74.0769 41.8662C74.1323 41.7798 73.5729 41.1889 73.5761 41.1692C73.6185 40.6982 74.7684 42.5417 75.4093 42.9514C74.345 41.6953 74.6436 41.8371 74.7111 41.5486C74.7424 41.4088 74.2907 40.955 74.2574 40.8979C73.7684 40.047 74.6563 40.9353 74.8426 41.1132C75.5293 41.7663 74.913 40.833 75.3726 41.2686C75.8305 41.6996 76.2875 42.5234 76.4556 42.3678C76.1277 41.874 75.0094 40.8019 74.9829 40.4988C74.8673 39.3677 76.5584 39.5026 77.0366 39.2452C77.5102 38.9936 77.5636 38.7993 77.9341 38.7532C78.6038 38.6691 77.6875 37.9566 77.5934 37.3374C77.5008 36.7168 79.2584 38.9167 79.7003 39.3319C80.1413 39.7475 79.7631 39.2513 80.0319 39.456C80.2998 39.6613 80.4766 40.0552 80.667 40.0513C80.7534 40.0495 80.7114 39.8301 80.6027 39.545C80.4759 39.1994 80.2504 38.7601 80.0377 38.4874C79.2103 37.4298 78.1374 36.509 78.7312 36.6318C78.7662 36.6392 79.2207 37.2259 79.3296 37.2266C80.1833 37.2087 80.6884 36.7626 81.5027 36.6478C81.6155 36.6327 82.1489 37.2636 82.2217 37.2607C82.986 37.2265 81.8529 36.4035 80.9339 35.1349C82.3771 36.5912 83.4045 37.3321 83.7075 37.0225C83.8883 36.8381 83.199 36.265 82.842 35.7202C82.7339 35.5565 83.3085 35.8375 83.0173 35.5316C82.0638 34.5336 80.8098 33.6262 81.5393 33.729C81.5731 33.7348 82.0985 34.2777 82.1743 34.2609C82.669 34.1512 81.6175 33.1672 81.7623 32.73C81.8749 32.3883 82.9334 32.4873 83.2909 32.2692C85.0794 33.7226 84.9133 33.0855 83.7558 31.9865C83.9643 31.8267 84.0604 31.5554 84.384 31.4923C84.4949 31.47 84.9929 31.9174 85.0568 31.9524C86.0603 32.5004 84.894 31.4791 84.8775 31.3998C84.7584 30.5744 85.9996 30.8533 85.3822 29.7321C85.3601 29.6913 84.0576 28.761 85.1058 29.2982C85.1784 29.3348 85.6743 29.9005 85.8711 29.7112C86.0656 29.5261 87.0681 29.5657 86.643 28.8502C86.5418 28.6767 85.5576 27.8013 86.5138 28.1841C86.6438 28.2359 87.0209 28.499 87.257 28.6027C88.0117 28.9291 86.6615 28.0359 87.9079 28.6304C89.1534 29.226 90.2026 29.4778 89.5794 28.6559C89.562 28.6307 88.4931 27.9166 88.5693 27.8218C88.693 27.6698 89.0598 27.5553 89.1484 27.3699C89.1901 27.2816 88.4568 26.965 88.4518 26.9433C88.3508 26.1746 89.1802 26.0989 89.746 25.5802C89.8539 25.4796 88.9888 24.7389 89.8728 24.8343C90.0128 24.8482 90.2061 24.8942 90.4329 24.96C90.4374 24.9526 90.4406 24.9277 90.4432 24.9195C91.8448 24.9754 94.5577 25.4529 93.8358 24.782C93.4991 24.457 88.6052 23.6022 91.2068 23.4181C90.6633 22.4701 92.0431 21.7643 91.2086 20.8003C91.1717 20.757 89.8021 20.5209 89.8282 20.4293C89.8698 20.2934 90.5206 20.2677 90.5709 20.1719C90.7977 19.7713 90.2751 19.3481 90.392 18.9537C90.4349 18.8038 91.0977 18.9086 91.149 18.73C91.1998 18.5516 90.331 18.3619 90.7745 18.1492C91.1124 17.9885 92.9218 17.9466 93.1507 17.7203C91.3815 17.5672 91.4315 17.4016 90.9895 17.0621C90.9037 16.9966 90.2826 17.0069 90.2103 16.9732C89.9023 16.8343 90.4215 16.7746 90.0852 16.6384C90.0044 16.6054 89.4003 16.5519 89.3002 16.5218C89.1294 16.4714 89.0449 16.4238 89.0213 16.3798C89.0178 16.3417 89.0467 16.2296 89.0468 16.1914C88.9739 15.9637 89.9234 15.9311 90.1186 15.9343C91.0435 15.9335 90.2979 15.6648 90.6808 15.5988C91.0624 15.5405 91.4371 15.8662 91.6886 15.7542C92.2075 15.5285 92.2379 15.0643 92.3634 14.713C92.4095 14.5733 91.6023 14.4556 91.5907 14.4307C91.4722 14.0878 92.3844 14.0052 90.8637 13.4431C94.9554 14.2691 90.518 13.1674 91.4257 12.9625C91.4988 12.9467 93.4283 13.3554 93.6781 13.5559C93.9266 13.7599 93.2792 13.812 93.6695 14.1075C93.7622 14.1734 95.4837 14.8948 95.5815 14.962C96.3523 15.4681 93.4973 14.7361 93.3376 14.7073C91.6105 14.4044 93.4488 15.2233 93.5595 15.3384C94.0689 15.8583 93.5901 16.0327 93.9606 16.3989C94.2002 16.6366 96.0731 17.1041 95.9937 17.184C95.8865 17.2926 95.3819 17.2705 94.9717 17.2837L95.0231 16.9051C94.4303 17.053 94.0427 17.2004 95.3928 17.5938C95.8806 17.7369 97.9911 17.8077 96.3084 18.0355C96.2023 18.0492 94.6679 18.1998 95.6122 18.4337C95.7313 18.463 96.3442 18.5109 96.3936 18.541C96.7128 18.7417 96.2154 18.8202 96.4344 19.0299C96.6533 19.2396 96.9841 19.4976 96.7592 19.7025C96.6246 19.8259 95.4694 19.9092 95.1849 19.9516C94.3655 20.0697 95.6709 20.3668 94.6868 20.4034C93.6978 20.4399 92.2266 20.103 91.5702 20.3489C93.1616 20.4849 94.7939 20.6388 96.3938 20.7827C96.2859 21.4356 95.7179 22.0478 95.7273 22.7307C95.73 22.8157 96.593 22.8068 96.6179 22.9005C96.7187 23.2976 96.0772 23.5764 96.2781 24.0057C96.4369 24.3384 97.3025 24.7879 97.4893 25.16C96.3149 25.1571 96.117 25.3871 96.0699 25.6481C95.982 25.9246 95.8731 26.7667 95.7217 27.0141C95.6521 27.1728 95.6258 27.3526 95.5108 27.4731C95.3999 27.5903 94.9535 27.3921 94.7672 27.4242C94.0757 27.5442 95.6285 28.0193 95.8182 28.2213C96.615 29.1018 93.2689 27.6299 93.1423 28.1066C93.1369 28.1272 94.7422 29.281 94.8269 29.3822C95.4012 30.0031 94.1982 29.1236 93.9876 29.2218C93.6012 29.4017 93.0893 29.3771 93.4098 29.9846C93.507 30.1604 94.438 30.9885 93.5103 30.7207C93.3891 30.6852 92.8359 30.3549 92.792 30.3561C92.047 30.3946 93.7953 31.4117 94.262 31.9714C94.728 32.5317 93.3354 32.1344 92.9553 31.9837C91.9674 31.6026 92.6514 31.6273 92.5696 31.5645C91.5908 30.8322 91.6371 31.1612 91.4485 31.2707C89.7448 30.2534 89.7109 30.5331 91.2593 31.3887C91.429 31.4814 91.3512 31.256 91.4485 31.2707C93.0181 32.4348 93.0515 32.8523 91.3426 32.1454C90.5426 31.8119 89.7865 31.1531 89.8445 31.7278C89.8687 31.989 91.0514 32.6778 91.2565 33.0415C91.7204 33.8771 90.3507 33.6168 90.2633 34.084C90.2302 34.2557 90.9289 34.5645 90.9263 34.698C90.9193 35.0557 90.3143 34.9327 90.3716 35.3379C90.3773 35.3755 91.045 35.7896 90.9978 35.8698C90.6501 36.4882 89.8817 36.6619 89.4201 37.2142C89.198 37.4814 89.1327 38.2395 88.8305 38.4612C88.3094 38.8529 86.9514 38.673 86.804 39.2457C86.702 39.6207 87.3301 40.0935 87.6199 40.5666C88.1785 41.4876 86.4657 40.603 86.2147 40.4498C86.2073 40.4442 86.278 40.1012 85.8771 39.9399C85.2069 39.4294 86.2148 40.4445 86.2147 40.4498C86.0485 40.3569 85.5081 40.6609 85.5294 40.8514C85.5423 40.955 86.0967 41.4494 86.093 41.4939C85.9935 42.5413 85.5108 43.2721 84.642 43.5957C84.6207 43.5947 84.0778 42.9667 84.0353 42.9718C83.9211 42.9822 83.8446 43.0239 83.7959 43.0898C83.6253 43.3389 83.9645 44.0592 84.0783 44.6159C84.2217 45.2979 83.8696 45.343 82.7602 44.4239C82.6766 44.7397 81.9603 44.5336 81.5401 44.3946C81.1175 44.2579 82.1581 45.4937 82.1639 45.5312C82.3638 46.7153 81.4706 46.2656 80.8756 46.5824C80.5917 46.7306 80.2638 47.3106 80.1082 47.667C79.9885 47.95 79.6269 47.7565 79.5828 48.1042C79.5765 48.1509 80.0567 48.6876 80.066 48.7157C80.3884 49.5621 79.3886 48.109 79.1467 47.9008C78.2703 47.1405 77.7913 46.7455 77.8532 47.383C77.8693 47.5275 79.2557 49.6592 79.2252 49.8716C79.1846 50.1425 78.6821 49.3833 78.659 49.6805C78.6564 49.7053 79.0044 50.144 78.8896 50.2023C78.3533 50.4844 77.6512 50.6112 77.2036 51.0173C77.1401 51.0718 77.7591 51.7176 77.6754 51.8086C77.2865 52.2317 76.7663 52.574 76.0811 52.5574C75.9096 52.5519 75.6136 51.9985 75.4815 51.8663C74.6788 51.0685 75.4316 52.5264 75.4141 52.577C75.0492 53.7985 73.5984 53.0218 73.1644 54.1688C73.1454 54.2318 73.7793 55.9063 72.7818 54.7798C72.7157 54.7047 71.7009 53.5484 72.1539 54.5021C72.182 54.5619 72.7168 55.1492 72.5071 55.1942C72.2981 55.2389 72.3206 55.8562 71.6072 55.294C71.3788 55.1194 70.3725 53.9599 70.828 55.1144C70.8629 55.193 72.0365 57.7077 70.8723 56.2063C70.6825 55.9579 69.5971 54.2732 69.9088 55.2975C69.9691 55.4961 70.3027 55.812 70.3265 56.13C70.3634 56.6199 69.8057 56.3424 70.0392 57.2546C70.082 57.4152 70.6385 58.6752 69.9323 57.9017C69.8219 57.7805 69.5035 57.1897 69.3858 57.1763C68.8234 57.1108 68.6741 57.7366 68.0552 57.5803C67.8355 57.5267 67.3257 56.5693 67.0331 56.4112C66.7402 56.2534 66.3123 56.193 66.4351 56.6992C66.5548 57.2077 67.6258 58.5713 67.4825 58.8235C66.8389 59.9315 65.3821 59.6381 64.3553 60.085C64.202 60.1516 64.6369 60.6098 64.435 60.7451C64.1216 60.9568 63.7514 61.3167 63.3159 61.6031C62.7714 61.9634 62.1128 62.1973 61.3664 61.7711C60.308 61.1764 60.5628 60.0982 59.9445 59.9668C59.6441 59.9073 60.4617 61.7518 60.4458 61.8344C60.3196 62.6524 59.5488 62.0753 59.2834 62.5467C59.2278 62.6448 59.7211 63.2972 59.6692 63.373C59.4958 63.6379 59.0485 63.4796 58.8529 63.6708C58.7646 63.759 59.0969 64.2834 58.9764 64.2984C58.6916 64.3404 58.3537 64.2357 57.8331 63.8661C57.786 63.8323 57.5345 63.0854 57.3507 63.1594C57.0552 63.2805 56.4242 62.9842 56.4006 63.6834C56.3945 63.8931 57.1043 65.1207 56.4108 64.3911C56.2656 64.239 55.4642 62.7353 55.9683 64.144C56.0521 64.3781 56.6509 66.3253 55.811 65.3337C55.5888 65.0734 54.761 63.9429 54.758 64.1977C54.7602 64.2368 55.2037 64.8601 55.1475 64.9786C54.9438 65.3841 54.5497 65.5185 54.3303 65.9212C54.2727 66.0298 54.802 66.6341 54.7035 66.7744C54.4347 67.1601 53.8585 67.2614 53.3758 67.2553C53.1959 67.2524 52.9618 66.6337 52.9165 66.5777C52.1822 65.6673 52.8692 67.0718 52.8624 67.1807C52.8107 67.8394 52.191 67.351 51.993 67.6889C51.9366 67.7809 52.3663 68.3917 52.383 68.4586C52.5367 69.118 51.9963 67.8877 51.8152 67.8222C51.3066 67.6341 50.9934 67.8834 50.7379 68.1401C50.6442 68.2356 51.1999 68.9109 51.1108 68.9879C50.5906 69.4586 49.9257 69.7456 49.1082 69.6667C48.9529 69.6508 48.6914 69.0352 48.593 68.9168C47.9071 68.0869 48.3948 69.4759 48.4105 69.6259C48.4841 70.3095 48.0983 69.8538 47.94 70.0709C47.1643 71.1449 45.6927 71.5391 44.5854 71.8952C43.1547 72.3568 41.8419 72.3787 40.7046 73.2161C40.6317 73.2687 41.1476 73.9915 41.0903 74.0467C40.3278 74.7267 39.3079 74.9104 38.5695 75.6244C38.5081 75.6817 39.0248 76.3512 38.9401 76.4676C38.7693 76.7115 38.4497 76.841 38.0798 76.7438C37.9007 76.6974 37.6997 75.9849 37.5271 75.9509C37.1245 75.87 36.8055 75.9828 36.5938 76.2577C36.5046 76.3763 37.1067 77.0192 36.9578 77.1153C35.9523 77.785 34.9982 78.497 33.3916 78.134C33.2815 78.109 32.357 76.632 32.3684 77.0095C32.5955 77.4361 32.8768 77.9299 33.1268 78.3818C31.7409 79.489 29.9357 79.8198 28.3613 80.6058C28.2951 80.639 28.8615 81.3782 28.7357 81.4467C28.0076 81.8441 27.4324 82.4642 26.242 82.0853C26.1245 82.0489 25.3615 80.6161 25.2666 80.952C25.2505 81.0127 25.0322 81.3853 25.1221 81.7393C25.1369 81.792 25.5698 82.4172 25.476 82.4958C24.9245 82.9408 24.2006 83.1525 23.3651 83.0943C23.2295 83.0836 22.936 82.3228 22.836 82.3091C22.1293 82.2176 21.8929 83.0566 21.0584 82.6879C20.4983 82.4386 19.9279 81.1592 19.0826 80.0608C18.9633 79.9058 18.7519 79.9904 18.3479 79.3015C17.3315 77.5696 16.342 75.6031 15.2474 73.7634C15.0118 73.3671 14.9939 73.948 14.6 72.8907C14.5741 72.8197 14.5822 72.3901 14.4428 72.0347C14.3466 71.7889 13.8871 71.1159 13.7888 70.7871C13.6906 70.4586 14.0997 71.0093 14.0163 70.6048C13.9305 70.1961 13.4263 69.42 13.5929 69.1998ZM79.6499 43.7783C78.9864 43.3262 80.8169 45.4997 80.5461 44.8353C80.5307 44.8007 79.6828 43.8 79.6499 43.7783ZM93.5807 21.8654C92.3094 22.024 94.129 22.367 95.1099 22.2612C96.0897 22.1532 93.9662 21.8158 93.5807 21.8654ZM92.8854 19.0633C91.8766 19.2922 95.8902 19.6501 95.1032 19.2613C95.0588 19.2388 92.9439 19.0499 92.8854 19.0633ZM19.6706 79.2781C19.6495 79.2467 19.4904 79.2946 19.5055 79.3291C19.8755 80.1567 20.1934 80.0602 19.6706 79.2781ZM92.1285 16.4487C91.5754 16.4233 92.145 16.7928 92.8308 16.8161C93.379 16.8485 92.8122 16.4954 92.1285 16.4487ZM69.3442 47.8782C69.3176 47.8451 69.1991 47.8806 69.3368 48.0763C69.7812 48.7063 69.7932 48.4336 69.3442 47.8782ZM93.191 11.9752C92.9009 12.6449 89.5672 12.2889 90.0804 11.6919C90.1734 11.5802 91.0617 12.182 91.3891 12.0843C91.9884 11.892 89.9782 11.2881 91.1347 11.2012C91.3474 11.1812 93.2161 11.9337 93.1953 11.9773C93.1939 11.9766 93.1924 11.9759 93.191 11.9752ZM77.3297 41.2726C77.3022 41.2467 77.1561 41.3255 77.1773 41.3564C77.698 42.0984 77.9955 41.9376 77.3297 41.2726ZM62.726 50.1265C62.6728 50.0654 62.325 50.1952 62.3534 50.2643C62.972 51.6175 63.6892 51.3518 62.726 50.1265ZM83.3427 32.3029C82.741 31.6031 82.7755 31.3877 83.7544 31.9864C83.6033 32.0807 83.4915 32.207 83.3427 32.3029ZM42.9681 73.6422C43.3451 73.2533 44.0516 73.2893 44.6263 73.4718C44.8063 73.5278 44.9017 74.0281 45.0336 74.088C45.2872 74.206 45.3969 73.9047 45.668 74.0552C45.7594 74.1071 45.9488 74.8867 46.0387 74.9238C46.5335 75.1205 46.7936 74.8093 47.237 74.8259C49.3685 74.9272 51.2468 74.5006 53.1803 74.0333C53.8083 73.883 54.8191 74.2106 55.2826 73.6308C55.3347 73.5633 54.9855 72.9547 54.9731 72.8965C54.7833 72.0054 55.341 73.3063 55.5563 73.4091C56.4222 73.8071 57.0484 73.5543 57.4116 73.0485C57.5693 72.8291 56.6889 71.7257 57.2747 72.2945C57.3149 72.3326 57.6202 73.0133 57.7165 73.0507C57.9364 73.1334 58.1118 72.8826 58.2455 72.8741C58.5001 72.864 58.5288 72.8388 58.7143 72.7406C58.9663 72.6147 59.4621 72.7487 59.6325 72.4456C59.6693 72.3781 59.1948 71.7754 59.2153 71.6102C59.2363 71.4452 59.4988 71.3565 59.6713 71.4593C59.8443 71.5622 60.1347 72.0875 60.2223 72.1945C60.9662 73.0949 60.3686 71.5681 60.3756 71.5155C60.6166 70.5455 61.6447 70.9387 62.2119 70.511C62.6406 70.1849 62.8954 69.5993 63.3174 69.306C63.8201 68.9603 64.4869 68.9319 64.9042 68.4689C64.9483 68.4211 64.2982 67.7998 64.3503 67.7405C64.9046 67.1105 65.6024 66.6011 66.6727 66.4403C66.7804 66.4249 67.2269 67.083 67.3663 67.1023C67.5244 67.122 67.7128 67.1575 67.901 67.1837C68.6892 67.3217 69.485 67.2597 67.7352 65.0819C68.0761 64.9406 68.4712 64.7473 69.18 65.0159C69.6374 65.1876 70.1031 65.9339 70.0228 65.4968C70.0051 65.3991 69.4216 64.9212 69.4347 64.8154C69.4892 64.3712 69.9345 64.2647 69.898 63.7431C69.8892 63.6358 69.3906 63.184 69.3171 63.0857C68.7235 62.2878 70.0882 63.2055 70.2176 63.24C71.1786 63.5021 71.1644 63.009 71.4764 62.6994C71.5493 62.6275 70.8006 62.1076 70.8462 62.0171C71.0902 61.5571 71.4944 61.2208 72.1245 61.1099C72.2663 61.0866 72.7781 61.6703 72.8758 61.6848C73.3008 61.7406 72.238 60.7476 72.6219 60.7837C72.7016 60.7899 73.1828 61.2407 73.2432 61.2814C74.1932 61.9193 73.0512 60.7787 73.0464 60.7297C72.9637 60.0801 74.4291 60.9493 74.526 60.4627C74.536 60.4038 73.822 59.9582 73.8886 59.8257C74.3274 58.9411 75.141 58.2995 76.2609 57.9557C76.4341 57.9017 76.86 58.373 76.9264 58.4134C77.97 59.0378 76.7614 57.9599 76.7433 57.8843C76.6352 57.312 77.9294 57.8546 76.565 56.4714C76.9238 56.2639 77.2045 55.9956 77.4547 55.7029C78.3283 54.6705 78.964 53.3941 80.8375 53.2762C80.8671 53.2732 81.4344 53.8328 81.4903 53.8249C82.1688 53.739 81.1822 52.9867 80.3133 51.6964C80.0979 51.3695 81.6195 52.4165 81.7321 52.4924C82.1505 52.7677 82.9521 53.6438 83.0413 53.6885C83.7439 54.0372 80.8743 51.3715 81.1049 51.129C81.1167 51.1262 81.6066 51.6567 81.6772 51.6866C81.8976 51.782 81.7512 51.5214 81.9872 51.6345C82.5333 51.8967 83.9322 53.1874 83.3421 52.2097C83.2659 52.0827 81.6498 50.5566 81.9349 50.4205C82.0485 50.3681 82.3953 49.9751 82.6008 49.9781C82.8053 49.981 83.229 50.5667 83.2581 50.5816C84.1884 51.0016 84.355 51.3854 85.4516 52.277C86.5396 53.1702 84.224 50.7769 84.0274 50.4518C83.8318 50.1271 84.5688 50.5091 84.8017 50.6642C85.0351 50.8187 85.2806 51.2107 85.4283 51.2838C86.3929 51.7632 84.444 49.9447 84.1883 49.463C83.5915 48.3158 85.423 49.9924 85.7907 49.993C85.8916 49.9917 85.4749 49.6088 85.4926 49.5237C85.5699 49.1909 86.1913 49.6731 85.9742 48.9323C85.9373 48.8127 85.1845 47.5069 86.0082 48.2403C86.1259 48.3468 86.4667 48.8633 86.644 48.896C86.9096 48.9453 87.2327 48.8568 87.2503 48.58C87.263 48.3754 86.508 47.6802 86.8411 47.8179C86.9891 47.8802 87.2455 48.4337 87.4914 48.5131C87.7351 48.5937 88.0076 48.3488 88.1045 48.2491C88.201 48.1488 87.6742 47.5835 87.6515 47.5356C87.5253 47.2582 87.52 46.7969 87.5402 46.7832C88.47 45.9674 90.1184 46.401 90.8559 45.4134C90.9153 45.3364 90.4247 44.6876 90.4292 44.6689C90.5133 44.211 91.4681 46.1604 92.036 46.6543C91.1257 45.2827 91.3944 45.4644 91.4845 45.1948C91.5274 45.0637 91.1405 44.554 91.114 44.4936C90.737 43.5876 91.4939 44.5898 91.6513 44.7931C92.2339 45.5392 91.7484 44.5329 92.137 45.0326C92.521 45.5295 92.8678 46.4017 93.0353 46.286C92.7798 45.7519 91.8471 44.5167 91.8562 44.2194C91.893 43.1622 93.3103 43.5004 93.8814 43.4574C93.9189 43.4553 93.9528 43.451 93.9823 43.4439C94.4395 43.3331 94.5134 43.1642 94.851 43.2154C95.4629 43.3049 94.7343 42.407 94.7222 41.807C94.7097 41.2064 96.0251 43.6942 96.3718 44.1911C96.7189 44.6873 96.4411 44.129 96.6583 44.3859C96.8757 44.6426 96.9852 45.056 97.16 45.0965C97.3364 45.1361 97.0806 44.0349 96.79 43.472C96.1753 42.2791 95.3132 41.1595 95.8513 41.4095C95.8828 41.4245 96.2154 42.0874 96.3167 42.1131C97.1101 42.2949 97.6497 42.0014 98.4155 42.1205C98.5214 42.1379 98.8911 42.8759 98.9575 42.894C99.6498 43.0855 98.7733 41.9971 98.2016 40.5412C99.2189 42.3216 100 43.3127 100.319 43.1339C100.512 43.0268 100.016 42.2804 99.8164 41.6646C99.7565 41.4787 100.207 41.9254 100.017 41.5491C99.3964 40.3173 98.4771 39.0706 99.1356 39.3947C99.1654 39.411 99.4988 40.0887 99.5736 40.0977C100.058 40.1605 99.377 38.8913 99.6748 38.5231C99.9106 38.2328 100.873 38.7101 101.285 38.6626C102.326 40.7179 102.38 40.1004 101.831 38.6022C102.09 38.5501 102.308 38.3505 102.627 38.4514C102.736 38.4858 102.949 39.1206 102.988 39.1824C103.576 40.1597 103.071 38.6963 103.104 38.6175C103.463 37.8359 104.291 38.7831 104.553 37.522C104.559 37.4776 104.184 35.9197 104.653 37.0057C104.679 37.0786 104.67 37.774 104.925 37.8182L103.938 38.5654C103.946 38.5593 103.955 38.5521 103.962 38.5435C104.148 38.3331 105.128 38.3703 104.681 37.6856C104.574 37.5201 103.585 36.651 104.535 37.0456C104.664 37.0995 105.041 37.3635 105.274 37.4716C106.02 37.8147 104.677 36.9101 105.909 37.5326C107.138 38.1577 108.156 38.4703 107.53 37.6738C107.512 37.6499 106.46 36.9132 106.531 36.8339C106.648 36.7036 107.003 36.6275 107.087 36.4649C107.126 36.388 106.408 36.0392 106.403 36.0191C106.296 35.3071 107.106 35.304 107.664 34.8836C107.768 34.8057 106.935 34.0411 107.801 34.2181C108.755 34.3971 112.182 36.3033 111.599 35.34C111.371 34.9406 106.939 32.7038 109.46 33.3371C109.177 32.3653 110.671 32.137 110.084 31.0679C110.059 31.0198 108.789 30.4574 108.834 30.3858C108.902 30.2806 109.535 30.4287 109.604 30.3584C109.909 30.0651 109.486 29.5757 109.675 29.2637C109.745 29.1458 110.369 29.3906 110.453 29.2458C110.537 29.099 109.726 28.7384 110.195 28.6551C110.552 28.5939 112.329 28.9327 112.593 28.776C110.89 28.2732 110.967 28.1394 110.59 27.75C110.517 27.675 109.907 27.5612 109.841 27.5172C109.758 27.4632 109.746 27.4297 109.761 27.4042C109.761 27.4014 109.764 27.3934 109.765 27.3905C109.802 27.3265 109.995 27.3169 109.782 27.178C109.71 27.1304 109.131 26.9495 109.039 26.8995C108.24 26.4617 109.628 26.6078 109.867 26.6443C110.778 26.7644 110.059 26.4325 110.439 26.4211C110.819 26.4137 111.171 26.7482 111.426 26.676C111.951 26.529 112.001 26.1116 112.139 25.805C112.19 25.6815 111.396 25.4989 111.386 25.4749C111.28 25.1598 112.187 25.1593 110.695 24.53C114.726 25.6083 110.359 24.2556 111.259 24.1514C111.331 24.1439 113.239 24.6435 113.482 24.8462C113.723 25.0525 113.079 25.0562 113.456 25.3584C113.546 25.426 115.226 26.2346 115.32 26.3073C116.06 26.8532 113.26 25.9303 113.104 25.8886C111.406 25.4552 113.192 26.3719 113.295 26.4913C113.774 27.02 113.292 27.1308 113.633 27.5146C113.854 27.7646 115.673 28.4091 115.582 28.4929C115.351 28.7021 113.725 28.3356 114.01 28.6548L114.026 28.5993C114.105 28.706 114.341 28.8646 114.812 29.1066C115.264 29.3379 117.319 29.8269 115.625 29.7134C115.519 29.7052 113.987 29.5366 114.863 29.9563C114.974 30.0095 115.563 30.1848 115.605 30.2244C115.875 30.4877 115.374 30.4512 115.541 30.7061C115.709 30.9599 115.975 31.2792 115.708 31.4292C115.548 31.5206 114.407 31.3275 114.121 31.2977C113.301 31.2066 114.497 31.8071 113.535 31.5987C112.57 31.3849 111.22 30.7168 110.532 30.7662C112.041 31.2906 113.585 31.8424 115.099 32.3788C114.834 32.9786 114.132 33.4005 113.961 34.0346C113.94 34.1158 114.771 34.348 114.769 34.4444C114.757 34.8488 114.066 34.9242 114.14 35.3777C114.198 35.7332 114.894 36.4117 114.966 36.8087C113.216 36.2436 113.582 36.9297 113.277 37.1741C113.17 37.261 112.736 37.0384 112.555 37.045C111.885 37.0701 113.397 37.6556 113.583 37.8527C114.367 38.705 111.101 37.0626 110.983 37.4771C110.977 37.4967 112.553 38.6789 112.638 38.7754C113.204 39.3869 112.023 38.4865 111.819 38.5569C111.448 38.6815 110.949 38.6174 111.274 39.1935C111.373 39.3587 112.294 40.188 111.393 39.8626C111.275 39.8204 110.73 39.4763 110.688 39.4736C109.97 39.445 111.693 40.5054 112.171 41.036C112.648 41.5691 111.306 41.0801 110.935 40.9143C109.972 40.4903 110.619 40.5806 110.537 40.518C109.557 39.7914 109.622 40.082 109.453 40.1583C107.758 39.1269 107.746 39.3718 109.285 40.2417C109.453 40.3367 109.36 40.1373 109.453 40.1583C111.031 41.3082 111.123 41.631 109.449 40.8784C108.665 40.5259 107.87 39.9186 108.004 40.4001C108.066 40.6159 109.268 41.2679 109.527 41.5608C109.658 41.7082 109.7 41.8031 109.686 41.8655C109.005 42.6396 107.569 44.201 106.538 44.2477C106.424 44.3453 106.026 43.6927 105.904 43.8998C105.85 43.995 106.167 44.6772 106.143 44.7654C106.089 44.9991 105.772 44.5186 105.735 44.8434C105.733 44.8733 106.054 45.5878 106.018 45.6132C105.753 45.8196 105.243 45.5016 104.841 45.6894C104.649 45.7792 104.503 46.3461 104.255 46.3855C103.83 46.4535 102.779 45.7489 102.579 46.1914C102.449 46.4761 102.902 47.1178 103.083 47.6311C103.44 48.6237 102.149 47.2421 101.952 47.0264C101.946 47.0191 102.044 46.7421 101.73 46.463C101.232 45.786 101.952 47.0221 101.952 47.0264C101.826 46.8858 101.337 46.9781 101.335 47.1555C101.335 47.2519 101.749 47.8683 101.741 47.9065C101.555 48.8014 101.095 49.3087 100.326 49.3703C100.308 49.3638 99.8924 48.645 99.8553 48.6385C99.3262 48.5279 99.6301 49.5294 99.6424 50.2226C99.6551 50.9151 99.3055 50.8845 98.4189 49.7509C98.2823 50.0365 97.6418 49.6744 97.2687 49.4437C97.2176 49.4123 97.1876 49.4118 97.1738 49.4344C97.1115 49.5638 97.6808 50.63 97.6831 50.6602C97.7775 51.7776 97.1008 51.0994 96.6104 51.2211C96.3782 51.275 96.113 51.7092 95.9995 51.9882C95.9121 52.21 95.6125 51.9512 95.5917 52.2513C95.5888 52.2915 95.9955 52.8852 96.0042 52.9125C96.3055 53.7411 95.4356 52.2104 95.2317 51.968C94.4902 51.0871 94.0719 50.6328 94.1482 51.2256C94.163 51.3631 95.4199 53.5674 95.4192 53.7463C95.4136 53.9764 94.9482 53.1956 94.9537 53.4573C94.9538 53.479 95.2702 53.9408 95.1851 53.969C94.7946 54.1054 94.2465 54.0932 93.9404 54.3864C93.8977 54.4245 94.4803 55.0985 94.4285 55.1645C94.1839 55.4742 93.8401 55.6934 93.2913 55.5952C93.1542 55.569 92.8158 55.0442 92.6861 54.9114C91.8966 54.1108 92.7633 55.4953 92.7622 55.5359C92.7242 56.5653 91.379 55.7771 91.3084 56.7719C91.3039 56.8304 92.2539 58.3146 91.1593 57.2934C91.0874 57.2245 89.9604 56.1856 90.5803 57.0338C90.6196 57.0864 91.2101 57.6111 91.0536 57.6463C90.8961 57.6828 91.0964 58.2139 90.3622 57.7206C90.1325 57.5636 88.9684 56.5693 89.6786 57.5718C89.7243 57.6453 91.453 59.7942 90.0529 58.5158C89.8224 58.3055 88.4209 56.872 88.9882 57.7581C89.0995 57.9287 89.4699 58.1902 89.5903 58.4651C89.7798 58.8848 89.2389 58.6699 89.7407 59.4363C89.8289 59.5726 90.7135 60.6155 89.8833 59.9908C89.7529 59.8934 89.2915 59.4074 89.1929 59.4029C88.7201 59.3805 88.8315 59.9205 88.2802 59.8417C88.0848 59.8161 87.3169 59.0521 87.0201 58.9494C86.7231 58.847 86.3508 58.8486 86.641 59.2687C86.9327 59.6873 88.3241 60.7137 88.3114 60.9397C88.2662 61.9115 87.0055 61.8627 86.4032 62.4107C86.3819 62.43 86.3974 62.4617 86.4319 62.5006C86.5362 62.6308 86.8411 62.8224 86.747 62.9612C86.2968 63.6329 85.8819 65.111 84.4112 64.8531C83.2372 64.6428 83.0534 63.5898 82.4521 63.6593C82.1653 63.6923 83.5893 65.1201 83.606 65.2001C83.7949 65.988 82.8879 65.696 82.8157 66.2132C82.8007 66.3203 83.4857 66.7663 83.4657 66.8522C83.4025 67.1508 82.9415 67.1385 82.8265 67.3796C82.7762 67.489 83.2656 67.8709 83.1597 67.9226C82.9124 68.0503 82.5648 68.0575 81.9605 67.8703C81.9057 67.853 81.4165 67.2369 81.2727 67.3615C81.041 67.5653 80.362 67.4751 80.5791 68.1279C80.6452 68.3231 81.7099 69.26 80.8241 68.7851C80.6387 68.6862 79.4002 67.5164 80.3319 68.6845C80.4883 68.8772 81.6751 70.5303 80.5735 69.8425C80.2836 69.6616 79.1503 68.8384 79.229 69.078C79.2434 69.1142 79.8552 69.5732 79.8398 69.7011C79.7756 70.1431 79.4524 70.3759 79.3658 70.82C79.3436 70.9398 80.026 71.3633 79.9735 71.5255C79.8294 71.9733 79.3149 72.2253 78.8474 72.355C78.6738 72.402 78.2777 71.8721 78.2187 71.831C77.2637 71.1565 78.3121 72.3158 78.3349 72.4229C78.4648 73.0704 77.742 72.7598 77.6378 73.139C77.6071 73.2426 78.1808 73.7207 78.2143 73.781C78.5317 74.38 77.6924 73.3304 77.5002 73.314C76.9597 73.2641 76.7272 73.5761 76.5389 73.8901C76.4706 74.0061 77.1748 74.525 77.1057 74.6227C76.7732 75.1152 76.3051 75.5048 75.6796 75.6831C75.568 75.7063 75.4497 75.7221 75.3243 75.7294C75.1816 75.7367 74.7838 75.2005 74.6644 75.1042C73.8305 74.4291 74.6348 75.6555 74.6875 75.7943C74.9292 76.4269 74.4602 76.0602 74.3678 76.2933C73.928 77.4373 72.5503 78.1499 71.4815 78.7225C70.0901 79.474 68.7334 79.7129 67.6096 80.6916C67.5376 80.753 68.1176 81.4261 68.0609 81.489C67.2914 82.2769 66.2129 82.5552 65.443 83.311C65.3773 83.3727 65.9156 84.027 65.8227 84.1511C65.6346 84.411 65.3013 84.5522 64.9121 84.4661C64.7242 84.4247 64.5345 83.7058 64.354 83.6762C63.9373 83.6029 63.615 83.7139 63.3835 83.9928C63.2857 84.1131 63.8859 84.7618 63.725 84.8604C62.6619 85.5331 61.6246 86.2177 60.0479 85.7348C59.9398 85.7016 59.1356 84.1561 59.1199 84.5318C59.312 84.9753 59.5525 85.4902 59.7652 85.9608C58.2921 86.9531 56.4901 87.0616 54.8966 87.5949C54.8283 87.618 55.2851 88.4291 55.1536 88.4786C54.4116 88.7582 53.7607 89.2819 52.6946 88.7012C52.588 88.6453 52.0601 87.1104 51.9258 87.422C51.9045 87.4778 51.6392 87.8064 51.6812 88.166C51.688 88.2201 52.0082 88.9095 51.9107 88.9687C51.3423 89.2994 50.6084 89.3781 49.8523 89.1523C49.7278 89.1152 49.5671 88.3169 49.4764 88.2837C48.833 88.0551 48.4895 88.8213 47.7809 88.2878C47.3041 87.9283 46.9768 86.5672 46.372 85.3226C46.2868 85.147 46.0809 85.1835 45.8178 84.4295C45.1564 82.5334 44.5525 80.4171 43.8362 78.3999C43.6823 77.9653 43.5871 78.5203 43.3842 77.4137C43.3712 77.3395 43.4355 76.9282 43.3594 76.5551C43.307 76.2971 42.9939 75.5456 42.9498 75.2076C42.9056 74.87 43.1908 75.4923 43.1677 75.0854C43.1425 74.674 42.8028 73.8137 42.9681 73.6422ZM95.7273 48.3492C95.1957 47.7596 96.5927 50.2339 96.4053 49.5578C96.3946 49.5222 95.7536 48.378 95.7273 48.3492ZM112.12 32.6476C110.86 32.4404 112.52 33.256 113.49 33.43C114.462 33.5937 112.503 32.7077 112.12 32.6476ZM112.077 29.9401C111.052 29.9064 114.876 31.1745 114.194 30.6297C114.156 30.5983 112.137 29.9415 112.077 29.9401ZM47.0148 84.6925C47.0003 84.6576 46.8513 84.6695 46.86 84.7061C47.077 85.5855 47.3766 85.5605 47.0148 84.6925ZM111.813 27.3618C111.269 27.2682 111.796 27.6852 112.472 27.797C113.014 27.893 112.487 27.4843 111.813 27.3618ZM86.7075 51.0337C86.6776 51.0036 86.5748 51.0427 86.734 51.2214C87.247 51.7968 87.2097 51.5407 86.7075 51.0337ZM113.024 23.3706C112.727 23.9735 109.424 23.4282 109.933 22.9505C110.026 22.8578 110.906 23.4376 111.231 23.3722C111.829 23.2336 109.831 22.5958 110.981 22.5792C111.193 22.5702 113.05 23.3321 113.028 23.3727C113.027 23.372 113.025 23.3713 113.024 23.3706ZM93.9455 45.4366C93.9238 45.4057 93.7812 45.4467 93.7971 45.4806C94.1821 46.2998 94.4644 46.2207 93.9455 45.4366ZM81.1549 54.0894C81.0895 54.0421 80.808 54.2509 80.8565 54.308C81.8581 55.4038 82.4153 55.0018 81.1549 54.0894ZM101.319 38.7146C101.059 37.8288 101.213 37.6335 101.83 38.6015C101.651 38.6206 101.495 38.6879 101.319 38.7146ZM80.9622 73.7546C80.952 73.4801 81.322 73.5707 81.7512 73.7301C81.8836 73.78 82.1146 74.2296 82.221 74.2813C82.4318 74.3797 82.3994 74.107 82.6395 74.2292C82.7204 74.2718 83.108 74.9712 83.1838 74.9999C83.6001 75.1495 83.7097 74.8329 84.0522 74.8076C85.7483 74.678 87.3176 73.96 89.0568 73.3581C89.6354 73.1549 90.6184 73.4349 91.0277 72.8673C91.0757 72.8 90.7155 72.1981 90.7015 72.1404C90.4996 71.2508 91.0781 72.5428 91.2906 72.6456C91.6857 72.834 92.0214 72.8908 92.3104 72.8497C92.5758 72.833 92.7765 72.682 92.9143 72.4537C93.0229 72.2697 92.247 71.1019 92.7519 71.723C92.7865 71.7646 93.0767 72.4507 93.1559 72.4999C93.3354 72.61 93.4682 72.3942 93.5721 72.4073C93.7752 72.4353 93.7968 72.4157 93.9416 72.3502C94.1407 72.2671 94.5466 72.4704 94.6737 72.21C94.6994 72.1527 94.2789 71.5137 94.286 71.3623C94.2931 71.2113 94.5042 71.1692 94.6522 71.2925C94.8002 71.416 95.0651 71.954 95.1426 72.0681C95.799 73.0295 95.2317 71.5068 95.2366 71.4582C95.3917 70.5925 96.2706 71.1343 96.7305 70.8483C97.0793 70.6288 97.2806 70.1426 97.6277 69.9644C98.039 69.757 98.5994 69.8762 98.9291 69.5597C98.9641 69.5272 98.4057 68.8242 98.4467 68.7834C98.886 68.3486 99.423 68.0773 100.276 68.1885C100.362 68.1997 100.775 68.8744 100.891 68.9225C101.584 69.2087 103.055 70.0264 101.086 67.2131C101.368 67.1579 101.693 67.0709 102.313 67.4527C102.713 67.6981 103.15 68.4502 103.059 68.0494C103.039 67.9599 102.515 67.4196 102.521 67.3294C102.543 66.9521 102.921 66.9502 102.862 66.4879C102.849 66.3926 102.397 65.8942 102.329 65.7932C101.776 64.974 102.995 66.0613 103.109 66.1176C103.952 66.5455 103.912 66.1164 104.167 65.9131C104.226 65.8661 103.551 65.2594 103.585 65.1909C103.771 64.8451 104.101 64.6429 104.642 64.68C104.764 64.6899 105.242 65.2978 105.327 65.3307C105.701 65.467 104.719 64.3947 105.056 64.5053C105.126 64.5271 105.571 65.0136 105.626 65.0611C106.49 65.8046 105.431 64.5899 105.423 64.5472C105.313 63.9755 106.644 65.0218 106.704 64.6243C106.709 64.5761 106.057 64.0493 106.108 63.9503C106.44 63.2883 107.116 62.9123 108.087 62.8442C108.237 62.8325 108.644 63.3152 108.705 63.3626C109.67 64.0954 108.532 62.9457 108.511 62.8786C108.377 62.3761 109.565 63.0826 108.262 61.6527C109.565 61.201 109.51 59.5992 111.609 59.7598C111.634 59.7605 112.232 60.2869 112.28 60.286C112.863 60.2786 111.859 59.5525 110.839 58.4087C110.582 58.1221 112.12 59.1254 112.235 59.1959C112.657 59.4584 113.539 60.2514 113.626 60.2955C114.318 60.6327 111.251 58.1984 111.39 58.0231C111.399 58.0216 111.943 58.496 112.011 58.5259C112.224 58.62 112.037 58.3948 112.267 58.5044C112.798 58.7594 114.317 59.9071 113.578 59.0576C113.481 58.9477 111.717 57.5975 111.926 57.5034C112.011 57.4665 112.203 57.1625 112.377 57.1736C112.551 57.1845 113.072 57.6807 113.1 57.6944C114.014 58.0639 114.258 58.3878 115.446 59.144C116.631 59.8962 113.986 57.8727 113.727 57.5999C113.546 57.4077 113.859 57.513 114.146 57.6368C114.266 57.6871 114.381 57.741 114.453 57.7785C114.698 57.9062 115.017 58.2364 115.166 58.2961C116.137 58.6865 113.948 57.1711 113.595 56.7651C112.763 55.8006 114.811 57.1936 115.129 57.1849C115.216 57.1817 114.749 56.864 114.741 56.7912C114.713 56.5067 115.387 56.8992 114.988 56.2725C114.922 56.1716 113.902 55.0752 114.818 55.6785C114.95 55.7661 115.391 56.1978 115.552 56.22C115.793 56.2539 116.044 56.165 115.977 55.9262C115.928 55.7498 115.079 55.1822 115.403 55.2876C115.547 55.3353 115.93 55.8007 116.163 55.8588C116.394 55.9183 116.552 55.6944 116.604 55.6035C116.656 55.5122 116.038 55.0507 116.004 55.0105C115.813 54.7781 115.665 54.3825 115.678 54.3695C116.202 53.6271 117.71 53.8923 117.971 52.9732C117.993 52.9016 117.365 52.3861 117.362 52.3696C117.268 51.9696 118.733 53.5623 119.372 53.9338C118.146 52.8361 118.428 52.9694 118.405 52.7276C118.393 52.6105 117.896 52.2095 117.853 52.1601C117.22 51.4184 118.193 52.2074 118.395 52.366C119.138 52.9487 118.377 52.1333 118.874 52.522C119.368 52.9078 119.966 53.6236 120.062 53.5024C119.659 53.0705 118.451 52.109 118.348 51.8533C117.956 50.8866 119.399 51.1074 119.729 50.9339C120.059 50.7603 120.054 50.605 120.349 50.5976C120.881 50.5851 119.945 49.9161 119.708 49.3985C119.47 48.882 121.485 50.8443 121.956 51.2245C122.427 51.6042 121.989 51.1617 122.263 51.3534C122.537 51.5448 122.783 51.8855 122.941 51.8967C123.099 51.9067 122.474 50.9938 122.022 50.5503C121.068 49.6094 119.941 48.7631 120.471 48.9082C120.503 48.917 121.027 49.4402 121.119 49.449C121.83 49.5019 122.15 49.1853 122.814 49.1749C122.906 49.1739 123.503 49.7417 123.565 49.7466C124.206 49.7965 123.056 49.0122 121.984 47.89C123.545 49.2187 124.588 49.9256 124.78 49.7046C124.895 49.5733 124.175 49.04 123.746 48.5651C123.616 48.4227 124.173 48.7077 123.854 48.432C122.81 47.533 121.529 46.6727 122.175 46.8384C122.205 46.8467 122.781 47.3344 122.842 47.3295C123.242 47.2967 122.111 46.4056 122.13 46.0855C122.144 45.8363 123.079 46.0345 123.338 45.9047C124.742 46.8634 124.953 46.8346 124.454 46.3708C124.276 46.2074 124.007 45.9906 123.671 45.7442C123.808 45.6529 123.817 45.4679 124.082 45.4521C124.173 45.4459 124.729 45.8152 124.794 45.8465C125.824 46.3266 124.527 45.4821 124.49 45.4253C124.156 44.8224 125.34 45.084 124.475 44.2481C124.444 44.2173 123.012 43.5024 124.105 43.9275C124.18 43.9557 124.784 44.3806 124.909 44.2501C125.032 44.1242 125.955 44.1706 125.376 43.6443C125.237 43.5159 124.101 42.8705 125.08 43.1599C125.214 43.199 125.629 43.3947 125.874 43.4727C126.654 43.7182 125.178 43.0541 126.481 43.5006C127.784 43.9472 128.815 44.146 128.035 43.5447C128.013 43.5262 126.846 42.9913 126.894 42.924C126.973 42.8163 127.29 42.7421 127.332 42.6121C127.351 42.5499 126.594 42.2991 126.585 42.2833C126.326 41.7178 127.1 41.6824 127.557 41.3546C127.641 41.2961 126.719 40.6699 127.58 40.8261C128.522 40.9998 132.093 42.5975 131.372 41.8903C131.08 41.6159 126.571 39.5378 129.062 40.2402C128.707 39.4449 130.112 39.5257 129.558 38.6222C129.533 38.5825 128.349 37.8612 128.399 37.8085C128.473 37.7347 129.066 38 129.135 37.9631C129.44 37.8171 129.099 37.3109 129.328 37.1184C129.409 37.05 129.901 37.413 130.029 37.3805L130.021 37.3918C130.028 37.3903 130.033 37.3878 130.038 37.3842C130.146 37.3006 129.475 36.727 129.914 36.8385C130.246 36.9265 131.834 37.7892 132.125 37.7174C130.616 36.7799 130.712 36.6951 130.407 36.2852C130.347 36.2067 129.79 35.936 129.734 35.8836C129.49 35.6673 129.969 35.8605 129.697 35.6349C129.632 35.5808 129.1 35.2899 129.016 35.2302C128.278 34.7182 129.564 35.2021 129.792 35.2774C130.652 35.579 129.977 35.1654 130.338 35.2391C130.699 35.3106 131.029 35.643 131.274 35.6355C131.417 35.6309 131.523 35.6018 131.605 35.5586C131.816 35.4482 131.872 35.2348 131.969 35.0764C132.02 34.9867 131.258 34.704 131.249 34.6831C131.146 34.4208 132.023 34.5663 130.58 33.8367C134.479 35.3206 130.255 33.5711 131.123 33.6411C131.193 33.647 133.05 34.3116 133.283 34.5103C133.516 34.712 132.888 34.6233 133.25 34.9251C133.338 34.9913 134.952 35.9129 135.039 35.9914C135.739 36.5693 133.048 35.3661 132.898 35.3057C131.267 34.673 132.976 35.7125 133.07 35.8318C133.332 36.1319 133.282 36.2603 133.259 36.3853C133.242 36.4754 133.236 36.5699 133.364 36.7343C133.561 36.99 135.274 37.8782 135.165 37.9626C134.785 38.2701 132.372 37.0786 134.177 38.62C134.556 38.9556 136.421 39.9522 134.795 39.4315C134.689 39.4056 133.266 38.8176 133.975 39.4814C134.064 39.5662 134.575 39.9085 134.601 39.962C134.765 40.316 134.286 40.1455 134.347 40.4596C134.36 40.5301 134.375 40.6058 134.387 40.6826L134.543 40.4657C134.682 40.6111 134.805 40.7427 134.643 40.6965C134.519 40.6578 133.512 40.1096 133.257 39.9901C132.523 39.6428 133.626 40.3803 132.753 39.9383C131.868 39.5068 130.63 38.661 129.987 38.5093C131.382 39.2878 132.811 40.0902 134.216 40.8685C134.051 41.0526 133.456 41.0904 133.382 41.4256C133.374 41.4673 134.174 41.7827 134.187 41.835C134.24 42.0511 133.612 41.9611 133.756 42.2485C133.87 42.4714 134.645 42.9804 134.793 43.2266C133.056 42.6471 133.531 43.1346 133.3 43.2663C133.22 43.3132 132.767 43.1323 132.599 43.1236C131.978 43.0965 133.518 43.5923 133.736 43.7347C134.663 44.3449 131.244 43.0497 131.225 43.3514C131.223 43.3665 132.973 44.2436 133.077 44.3127C133.754 44.7549 132.434 44.0941 132.262 44.1402C131.947 44.2253 131.465 44.1808 131.911 44.6058C132.044 44.7299 133.111 45.3331 132.188 45.1121C132.067 45.083 131.473 44.8346 131.433 44.8338C130.754 44.8375 132.627 45.6025 133.202 46.0078C133.776 46.4148 132.39 46.1084 132 45.9952C130.991 45.708 131.628 45.7322 131.536 45.6862C130.445 45.1435 130.572 45.3811 130.427 45.461C128.593 44.702 128.635 44.9066 130.283 45.5467C130.463 45.6159 130.333 45.4494 130.427 45.461C132.174 46.3261 132.311 46.6392 130.555 46.1116C129.732 45.8622 128.867 45.3641 129.069 45.7984C129.158 45.9965 130.422 46.5188 130.703 46.799C131.338 47.4477 130.008 47.266 130.036 47.6446C130.044 47.7857 130.762 48.0272 130.79 48.1377C130.861 48.4368 130.272 48.3466 130.408 48.6903C130.421 48.7225 131.129 49.0611 131.1 49.1323C130.934 49.5698 130.452 49.779 130.081 50.0971C129.995 50.1645 129.917 50.2392 129.854 50.3278C129.706 50.536 129.796 51.1603 129.569 51.3241C129.179 51.6157 127.946 51.3553 127.939 51.8115C127.93 52.1095 128.576 52.5544 128.928 52.9696C129.605 53.7798 127.937 52.8942 127.689 52.7445C127.681 52.7394 127.667 52.4644 127.287 52.2945C126.599 51.8126 127.688 52.7401 127.689 52.7445C127.525 52.6523 127.131 52.8488 127.195 53.0056C127.229 53.0915 127.813 53.5501 127.82 53.5861C127.977 54.4316 127.757 54.9714 127.144 55.1394C127.127 55.1364 126.516 54.5748 126.482 54.5746C126.005 54.5559 126.633 55.3758 126.912 55.9661C127.191 56.5559 126.908 56.566 125.76 55.7114C125.768 55.9677 125.127 55.7345 124.746 55.584C124.365 55.4336 125.539 56.5439 125.553 56.5752C126.028 57.5682 125.191 57.1109 124.806 57.3143C124.621 57.4095 124.532 57.8506 124.523 58.1211C124.517 58.3372 124.171 58.1537 124.249 58.4266C124.259 58.4632 124.802 58.9353 124.819 58.9586C125.34 59.6624 124.1 58.4141 123.845 58.2269C122.92 57.5457 122.418 57.1932 122.671 57.7122C122.729 57.8318 124.504 59.6426 124.555 59.8061C124.619 60.0155 123.976 59.3739 124.059 59.6091C124.066 59.6287 124.482 60.0032 124.415 60.0403C124.109 60.2178 123.625 60.2698 123.44 60.5636C123.414 60.6023 124.119 61.1457 124.091 61.2108C123.964 61.5141 123.719 61.7448 123.208 61.7019C123.081 61.6893 122.639 61.2497 122.488 61.1418C121.574 60.4912 122.717 61.6526 122.727 61.6892C122.973 62.6052 121.576 61.9894 121.776 62.8576C121.787 62.9092 123.011 64.1645 121.779 63.3175C121.697 63.2605 120.434 62.3974 121.199 63.1126C121.243 63.1532 121.796 63.5204 121.792 63.6109C121.791 63.6205 121.784 63.6278 121.772 63.6324C121.629 63.6854 121.911 64.1763 121.119 63.7875C120.868 63.6657 119.588 62.8305 120.436 63.7157C120.496 63.7757 122.483 65.689 120.938 64.5898C120.684 64.4083 119.123 63.1515 119.8 63.9512C119.931 64.1058 120.326 64.328 120.48 64.583C120.717 64.9759 120.165 64.8071 120.736 65.5225C120.837 65.6492 121.805 66.6162 120.925 66.062C120.788 65.9751 120.289 65.5277 120.191 65.5295C119.725 65.536 119.873 66.0627 119.322 66.0051C119.128 65.9857 118.326 65.2569 118.031 65.1592C117.736 65.0625 117.38 65.0555 117.687 65.4604C117.992 65.8661 119.401 66.868 119.393 67.0936C119.353 68.0789 118.075 68.0197 117.448 68.5109C117.355 68.5838 117.883 68.9176 117.778 69.0553C117.394 69.5644 117.07 70.7834 115.725 70.3009C114.657 69.9063 114.449 68.9581 113.911 68.9085C113.655 68.8838 114.993 70.3863 115.01 70.4594C115.206 71.1852 114.381 70.7617 114.333 71.2022C114.323 71.2936 114.954 71.8092 114.939 71.8812C114.89 72.1337 114.477 72.036 114.381 72.227C114.339 72.3139 114.791 72.7396 114.697 72.7659C114.478 72.8337 114.166 72.7763 113.619 72.4986C113.569 72.4731 113.111 71.8408 112.987 71.9228C112.788 72.0575 112.177 71.8513 112.393 72.4657C112.459 72.6496 113.437 73.6763 112.633 73.0902C112.465 72.9679 111.325 71.7021 112.192 72.9081C112.339 73.1063 113.441 74.7945 112.443 73.9763C112.18 73.7612 111.149 72.8175 111.227 73.0435C111.241 73.0782 111.797 73.6008 111.788 73.7107C111.746 74.0886 111.465 74.2347 111.405 74.6097C111.389 74.7115 112.004 75.218 111.963 75.3518C111.85 75.7213 111.402 75.8483 110.998 75.8724C110.847 75.8806 110.482 75.3329 110.429 75.285C109.57 74.5003 110.527 75.7342 110.55 75.834C110.684 76.4365 110.043 76.0192 109.966 76.3369C109.943 76.4234 110.46 76.9607 110.491 77.021C110.789 77.6168 110.02 76.5181 109.853 76.4664C109.38 76.3177 109.189 76.5514 109.039 76.795C108.984 76.8855 109.614 77.4857 109.558 77.5598C109.233 78.0132 108.74 78.2949 108.034 78.2353C107.901 78.2227 107.548 77.6569 107.439 77.5487C106.687 76.788 107.401 78.0623 107.445 78.2021C107.65 78.835 107.23 78.4153 107.143 78.6165C106.717 79.6114 105.531 79.9655 104.666 80.248C103.53 80.6269 102.458 80.5482 101.605 81.2384C101.551 81.2813 102.056 82.0093 102.014 82.0564C101.447 82.6333 100.608 82.7043 100.034 83.296C99.9858 83.3434 100.459 84.0406 100.395 84.1416C100.265 84.354 100 84.4398 99.6852 84.3003C99.5326 84.2335 99.3318 83.5292 99.1859 83.4745C98.8459 83.3452 98.5871 83.408 98.424 83.6378C98.3545 83.7376 98.8769 84.4354 98.7559 84.5058C98.5081 84.6558 98.2615 84.8091 97.9998 84.933C97.6823 85.0843 97.2925 85.1007 96.5586 84.6208C96.4873 84.5731 95.6124 83.0674 95.6923 83.4051C95.9218 83.8304 96.1993 84.3263 96.4487 84.7785C95.839 85.4375 94.7343 85.4202 93.7829 85.9403C93.743 85.9623 94.3184 86.6874 94.2443 86.7336C93.8156 87.0022 93.5293 87.5048 92.526 87.0743C92.427 87.0327 91.548 85.6685 91.5411 85.9685C91.5422 86.0217 91.4403 86.3501 91.577 86.682C91.5984 86.7316 92.0591 87.3349 91.9983 87.4018C91.634 87.7817 91.0495 87.957 90.2958 87.8773C90.1739 87.8629 89.8388 87.1221 89.7494 87.1052C89.1268 86.985 88.9444 87.801 88.125 87.405C87.5819 87.1322 87.0582 85.8323 86.2971 84.6792C86.1915 84.5159 86.0076 84.5715 85.6564 83.8539C84.7757 82.0494 83.8791 80.041 82.9295 78.1227C82.7248 77.7099 82.8491 78.1999 82.4266 77.1677C82.3984 77.0987 82.2963 76.7376 82.142 76.3922C82.0349 76.1537 81.6621 75.432 81.5279 75.1253C81.3912 74.8201 81.7142 75.4196 81.5633 75.0553C81.4083 74.6875 80.967 73.876 80.9622 73.7546ZM123.043 54.9103C122.382 54.4822 124.454 56.4272 124.054 55.8581C124.033 55.8283 123.076 54.9311 123.043 54.9103ZM131.522 40.1764C130.324 39.776 131.951 40.6489 132.871 40.9667C133.784 41.2962 131.882 40.3037 131.522 40.1764ZM131.436 38.4524C130.512 38.0588 133.904 40.2344 133.284 39.6944C133.249 39.6642 131.489 38.4768 131.436 38.4524ZM86.7455 84.0006C86.7252 83.9688 86.5997 83.9961 86.6142 84.0306C86.9859 84.8561 87.2502 84.7938 86.7455 84.0006ZM131.611 36.2732C131.098 36.0794 131.563 36.545 132.201 36.7889C132.718 36.9796 132.253 36.5085 131.611 36.2732ZM116.211 58.0529C116.177 58.0278 116.099 58.0638 116.286 58.2129C116.889 58.6928 116.786 58.4742 116.211 58.0529ZM132.847 33.2741C132.549 33.7235 129.333 32.8237 129.818 32.559C129.908 32.5037 130.774 33.0512 131.091 33.0481C131.675 33.0189 129.713 32.2911 130.84 32.424C131.049 32.4401 132.874 33.2447 132.852 33.2763C132.85 33.2756 132.849 33.2749 132.847 33.2741ZM120.486 52.6489C120.457 52.6254 120.357 52.6802 120.383 52.7074C121.005 53.3631 121.206 53.2528 120.486 52.6489ZM112.028 60.4726C111.963 60.4261 111.75 60.5662 111.801 60.6195C112.854 61.6612 113.294 61.3742 112.028 60.4726ZM123.391 45.9359C122.929 45.5358 122.764 45.3346 123.005 45.4114C123.123 45.4525 123.339 45.5605 123.67 45.7439C123.638 45.759 123.61 45.7764 123.584 45.7948C123.521 45.8424 123.466 45.8958 123.391 45.9359Z" fill="black"/>
</g>
<use xlink:href="#pattern0_2013_367_inner" transform="translate(-164.923 41.4168)"/>
<use xlink:href="#pattern0_2013_367_inner" transform="translate(-98.9538 41.4168)"/>
<use xlink:href="#pattern0_2013_367_inner" transform="translate(-32.9846 41.4168)"/>
<use xlink:href="#pattern0_2013_367_inner" transform="translate(32.9846 41.4168)"/>
</pattern></defs>
</svg>
