<svg width="16" height="12" viewBox="0 0 16 12" fill="none" xmlns="http://www.w3.org/2000/svg">
<path d="M8 6.7312L15.42 0.3776C15.1351 0.135531 14.7739 0.00180792 14.4 0H1.6C1.22614 0.00180792 0.864917 0.135531 0.58 0.3776L8 6.7312Z" fill="#1F2A37"/>
<path d="M9 7.9816C8.70884 8.20431 8.35296 8.32593 7.9864 8.328C7.6448 8.3287 7.31227 8.21804 7.0392 8.0128L0 1.9872V10.4C0 10.8243 0.168571 11.2313 0.468629 11.5314C0.768687 11.8314 1.17565 12 1.6 12H14.4C14.8243 12 15.2313 11.8314 15.5314 11.5314C15.8314 11.2313 16 10.8243 16 10.4V1.9872L9 7.9816Z" fill="#1F2A37"/>
</svg>
