<svg width="17" height="18" viewBox="0 0 17 18" fill="none" xmlns="http://www.w3.org/2000/svg">
<g clip-path="url(#clip0_81_1333)">
<path d="M8.49951 1.41669C9.54359 1.41669 10.5326 1.61513 11.4604 2.01532C12.3787 2.41139 13.1815 2.95171 13.8647 3.63544C14.5477 4.31889 15.0879 5.12128 15.4849 6.03876C15.8863 6.96658 16.085 7.95575 16.0835 9.00067C16.082 10.0447 15.8824 11.0326 15.4839 11.9597C15.0891 12.878 14.55 13.6821 13.8647 14.3659C13.1801 15.049 12.3766 15.5885 11.4604 15.985C10.6499 16.3358 9.79164 16.5311 8.88916 16.5739L8.49951 16.5837C7.45476 16.5836 6.4665 16.3843 5.53955 15.9841C4.62229 15.588 3.81923 15.0484 3.13525 14.3649C2.4511 13.6813 1.91077 12.8786 1.51514 11.9606C1.11549 11.0334 0.917059 10.0449 0.916504 9.00067C0.916 7.95596 1.11529 6.9664 1.51611 6.03876C1.91252 5.12151 2.45155 4.31877 3.13428 3.63544C3.81749 2.95171 4.62125 2.41139 5.53955 2.01532C6.46726 1.61525 7.45566 1.41673 8.49951 1.41669ZM8.49951 3.83368C7.04752 3.83375 5.83561 4.33157 4.8335 5.33368C3.83139 6.33579 3.33357 7.5477 3.3335 8.99969C3.3335 10.4518 3.83131 11.6645 4.8335 12.6667C5.83557 13.6687 7.0476 14.1666 8.49951 14.1667C9.95165 14.1667 11.1643 13.6689 12.1665 12.6667C13.1687 11.6645 13.6665 10.4518 13.6665 8.99969C13.6664 7.54778 13.1685 6.33576 12.1665 5.33368C11.1643 4.33149 9.95165 3.83368 8.49951 3.83368Z" fill="black" stroke="black"/>
</g>
<defs>
<clipPath id="clip0_81_1333">
<rect width="17" height="17" fill="white" transform="translate(0 0.5)"/>
</clipPath>
</defs>
</svg>
