<svg width="17" height="18" viewBox="0 0 17 18" fill="none" xmlns="http://www.w3.org/2000/svg">
<path d="M8.49984 16.0833C7.51998 16.0833 6.59914 15.8973 5.73734 15.5252C4.87553 15.153 4.12588 14.6485 3.48838 14.0114C2.85088 13.3744 2.34631 12.6248 1.97467 11.7625C1.60303 10.9002 1.41698 9.97938 1.4165 8.99999C1.41603 8.0206 1.60209 7.09977 1.97467 6.23749C2.34725 5.37521 2.85182 4.62556 3.48838 3.98853C4.12494 3.3515 4.87459 2.84693 5.73734 2.47482C6.60009 2.10271 7.52092 1.91666 8.49984 1.91666C9.47875 1.91666 10.3996 2.10271 11.2623 2.47482C12.1251 2.84693 12.8747 3.3515 13.5113 3.98853C14.1479 4.62556 14.6527 5.37521 15.0257 6.23749C15.3988 7.09977 15.5846 8.0206 15.5832 8.99999C15.5818 9.97938 15.3957 10.9002 15.025 11.7625C14.6543 12.6248 14.1497 13.3744 13.5113 14.0114C12.8729 14.6485 12.1232 15.1533 11.2623 15.5259C10.4015 15.8984 9.48064 16.0843 8.49984 16.0833ZM8.49984 14.6667C10.0818 14.6667 11.4217 14.1177 12.5196 13.0198C13.6175 11.9219 14.1665 10.5819 14.1665 8.99999C14.1665 7.41805 13.6175 6.07811 12.5196 4.9802C11.4217 3.88228 10.0818 3.33332 8.49984 3.33332C6.91789 3.33332 5.57796 3.88228 4.48005 4.9802C3.38213 6.07811 2.83317 7.41805 2.83317 8.99999C2.83317 10.5819 3.38213 11.9219 4.48005 13.0198C5.57796 14.1177 6.91789 14.6667 8.49984 14.6667Z" fill="black"/>
</svg>
