<svg width="29" height="30" viewBox="0 0 29 30" fill="none" xmlns="http://www.w3.org/2000/svg">
<path fill-rule="evenodd" clip-rule="evenodd" d="M13.2917 2.91675C11.5545 2.91694 9.84273 3.33326 8.29954 4.13087C6.75635 4.92848 5.42669 6.08417 4.42186 7.50119C3.41703 8.91821 2.76627 10.5553 2.52407 12.2755C2.28187 13.9956 2.45527 15.7488 3.02975 17.3882C3.60423 19.0276 4.56308 20.5055 5.82602 21.6982C7.08897 22.8909 8.61927 23.7638 10.2888 24.2436C11.9583 24.7235 13.7185 24.7964 15.4221 24.4563C17.1256 24.1162 18.7228 23.3729 20.0801 22.2887L24.5207 26.7294C24.7486 26.9495 25.0538 27.0713 25.3707 27.0685C25.6875 27.0658 25.9905 26.9387 26.2146 26.7147C26.4386 26.4906 26.5657 26.1876 26.5684 25.8707C26.5712 25.5539 26.4494 25.2487 26.2293 25.0208L21.7887 20.5802C23.0671 18.9802 23.8677 17.0517 24.0984 15.0167C24.3291 12.9818 23.9805 10.923 23.0927 9.07743C22.2048 7.23186 20.8139 5.6745 19.08 4.5846C17.3461 3.4947 15.3397 2.91657 13.2917 2.91675ZM6.04167 13.7917C6.04167 12.8397 6.2292 11.8969 6.59354 11.0173C6.95789 10.1377 7.49192 9.33845 8.16515 8.66522C8.83837 7.992 9.63761 7.45797 10.5172 7.09362C11.3968 6.72928 12.3396 6.54175 13.2917 6.54175C14.2438 6.54175 15.1865 6.72928 16.0661 7.09362C16.9457 7.45797 17.745 7.992 18.4182 8.66522C19.0914 9.33845 19.6255 10.1377 19.9898 11.0173C20.3541 11.8969 20.5417 12.8397 20.5417 13.7917C20.5417 15.7146 19.7778 17.5586 18.4182 18.9183C17.0586 20.2779 15.2145 21.0417 13.2917 21.0417C11.3689 21.0417 9.52479 20.2779 8.16515 18.9183C6.80551 17.5586 6.04167 15.7146 6.04167 13.7917Z" fill="#727070"/>
</svg>
