<svg width="17" height="17" viewBox="0 0 17 17" fill="none" xmlns="http://www.w3.org/2000/svg">
<path d="M2.41992 16.4744L2.41213 16.4758L2.36184 16.5006L2.34767 16.5034L2.33775 16.5006L2.28746 16.4758C2.27991 16.4734 2.27424 16.4746 2.27046 16.4793L2.26763 16.4864L2.25559 16.7896L2.25913 16.8038L2.26621 16.813L2.33988 16.8654L2.3505 16.8682L2.359 16.8654L2.43267 16.813L2.44117 16.8016L2.444 16.7896L2.43196 16.4871C2.43007 16.4796 2.42606 16.4753 2.41992 16.4744ZM2.60763 16.3943L2.59842 16.3958L2.46738 16.4616L2.46029 16.4687L2.45817 16.4765L2.47092 16.7811L2.47446 16.7896L2.48013 16.7945L2.6225 16.8604C2.63147 16.8628 2.63832 16.8609 2.64304 16.8548L2.64588 16.8448L2.62179 16.4099C2.61943 16.4014 2.61471 16.3962 2.60763 16.3943ZM2.10117 16.3958C2.09805 16.3939 2.09432 16.3933 2.09075 16.394C2.08719 16.3948 2.08407 16.397 2.08204 16.4L2.07779 16.4099L2.05371 16.8448C2.05418 16.8533 2.0582 16.859 2.06575 16.8618L2.07638 16.8604L2.21875 16.7945L2.22584 16.7889L2.22867 16.7811L2.24071 16.4765L2.23859 16.468L2.2315 16.4609L2.10117 16.3958Z" fill="#727070"/>
<path d="M14.0417 4.125C14.2295 4.125 14.4097 4.19963 14.5425 4.33247C14.6754 4.4653 14.75 4.64547 14.75 4.83333C14.75 5.02119 14.6754 5.20136 14.5425 5.3342C14.4097 5.46704 14.2295 5.54167 14.0417 5.54167H13.3333L13.3312 5.59196L12.6703 14.8506C12.6449 15.208 12.485 15.5425 12.2227 15.7867C11.9605 16.0309 11.6155 16.1667 11.2572 16.1667H5.49208C5.13377 16.1667 4.78876 16.0309 4.52654 15.7867C4.26433 15.5425 4.1044 15.208 4.07896 14.8506L3.41808 5.59267L3.41667 5.54167H2.70833C2.52047 5.54167 2.3403 5.46704 2.20747 5.3342C2.07463 5.20136 2 5.02119 2 4.83333C2 4.64547 2.07463 4.4653 2.20747 4.33247C2.3403 4.19963 2.52047 4.125 2.70833 4.125H14.0417ZM11.9145 5.54167H4.83546L5.49279 14.75H11.2572L11.9145 5.54167ZM9.79167 2C9.97953 2 10.1597 2.07463 10.2925 2.20747C10.4254 2.3403 10.5 2.52047 10.5 2.70833C10.5 2.89619 10.4254 3.07636 10.2925 3.2092C10.1597 3.34204 9.97953 3.41667 9.79167 3.41667H6.95833C6.77047 3.41667 6.5903 3.34204 6.45747 3.2092C6.32463 3.07636 6.25 2.89619 6.25 2.70833C6.25 2.52047 6.32463 2.3403 6.45747 2.20747C6.5903 2.07463 6.77047 2 6.95833 2H9.79167Z" fill="#727070"/>
</svg>
