<svg width="17" height="17" viewBox="0 0 17 17" fill="none" xmlns="http://www.w3.org/2000/svg">
<g clip-path="url(#clip0_66_528)">
<path d="M-3.66659 2.83337C-4.04231 2.83337 -4.40264 2.98263 -4.66832 3.24831C-4.934 3.51398 -5.08325 3.87432 -5.08325 4.25004V7.08337C-4.70753 7.08337 -4.34719 7.23263 -4.08152 7.49831C-3.81584 7.76398 -3.66659 8.12432 -3.66659 8.50004C-3.66659 8.87576 -3.81584 9.2361 -4.08152 9.50177C-4.34719 9.76745 -4.70753 9.91671 -5.08325 9.91671V12.75C-5.08325 13.1258 -4.934 13.4861 -4.66832 13.7518C-4.40264 14.0175 -4.04231 14.1667 -3.66659 14.1667H7.66675C8.04247 14.1667 8.40281 14.0175 8.66848 13.7518C8.93416 13.4861 9.08341 13.1258 9.08341 12.75V9.91671C8.70769 9.91671 8.34736 9.76745 8.08168 9.50177C7.816 9.2361 7.66675 8.87576 7.66675 8.50004C7.66675 8.12432 7.816 7.76398 8.08168 7.49831C8.34736 7.23263 8.70769 7.08337 9.08341 7.08337V4.25004C9.08341 3.87432 8.93416 3.51398 8.66848 3.24831C8.40281 2.98263 8.04247 2.83337 7.66675 2.83337H-3.66659ZM4.47925 4.95837L5.54175 6.02087L-0.479085 12.0417L-1.54159 10.9792L4.47925 4.95837ZM-0.259502 4.98671C0.434665 4.98671 0.994248 5.54629 0.994248 6.24046C0.994248 6.57297 0.862156 6.89187 0.627033 7.12699C0.391909 7.36212 0.0730133 7.49421 -0.259502 7.49421C-0.953669 7.49421 -1.51325 6.93462 -1.51325 6.24046C-1.51325 5.90794 -1.38116 5.58905 -1.14604 5.35392C-0.910913 5.1188 -0.592017 4.98671 -0.259502 4.98671ZM4.25966 9.50587C4.95383 9.50587 5.51341 10.0655 5.51341 10.7596C5.51341 11.0921 5.38132 11.411 5.1462 11.6462C4.91108 11.8813 4.59218 12.0134 4.25966 12.0134C3.5655 12.0134 3.00591 11.4538 3.00591 10.7596C3.00591 10.4271 3.13801 10.1082 3.37313 9.87309C3.60825 9.63797 3.92715 9.50587 4.25966 9.50587Z" fill="#727070"/>
</g>
<defs>
<clipPath id="clip0_66_528">
<rect width="17" height="17" fill="white"/>
</clipPath>
</defs>
</svg>
