<svg width="20" height="21" viewBox="0 0 20 21" fill="none" xmlns="http://www.w3.org/2000/svg">
<path fill-rule="evenodd" clip-rule="evenodd" d="M16.0709 11.0375C16.6601 10.439 16.9875 9.63094 16.9809 8.79109C16.9743 7.95124 16.6344 7.1484 16.0359 6.55917C15.7395 6.26742 15.3886 6.0369 15.0032 5.88076C14.6178 5.72462 14.2053 5.64593 13.7895 5.64918C12.9496 5.65575 12.1468 5.99567 11.5576 6.59417C11.3976 6.75417 11.1942 6.95056 10.9476 7.18334L10.2617 7.82917L9.5759 7.18334C9.32868 6.95001 9.12507 6.75362 8.96507 6.59417C8.3712 6.00031 7.56575 5.66668 6.7259 5.66668C5.88605 5.66668 5.0806 6.00031 4.48673 6.59417C3.2634 7.81834 3.24923 9.79751 4.44173 11.0275L10.2617 16.8475L16.0709 11.0375ZM3.77923 5.88751C4.16616 5.50048 4.62554 5.19347 5.13113 4.98401C5.63673 4.77454 6.17863 4.66673 6.7259 4.66673C7.27317 4.66673 7.81507 4.77454 8.32067 4.98401C8.82626 5.19347 9.28564 5.50048 9.67257 5.88751C9.82423 6.03973 10.0206 6.22917 10.2617 6.45584C10.5017 6.22917 10.6981 6.03945 10.8509 5.88668C11.6263 5.09931 12.6828 4.65224 13.7878 4.6438C14.8929 4.63536 15.956 5.06625 16.7434 5.84167C17.5308 6.6171 17.9778 7.67355 17.9863 8.7786C17.9947 9.88366 17.5638 10.9468 16.7884 11.7342L10.8509 17.6725C10.6946 17.8287 10.4827 17.9165 10.2617 17.9165C10.0408 17.9165 9.82884 17.8287 9.67257 17.6725L3.7334 11.7333C2.97177 10.9478 2.54966 9.89428 2.55823 8.8002C2.56681 7.70612 3.00538 6.65931 3.77923 5.88584V5.88751Z" fill="black"/>
</svg>
