<svg width="30" height="30" viewBox="0 0 30 30" fill="none" xmlns="http://www.w3.org/2000/svg">
<path d="M20.619 4.4873C18.2005 4.4873 16.134 6.21115 14.9986 7.39961C13.8632 6.21115 11.8013 4.4873 9.38398 4.4873C5.21744 4.4873 2.30859 7.39154 2.30859 11.5488C2.30859 16.1296 5.92129 19.0904 9.41629 21.9542C11.0663 23.3077 12.774 24.7062 14.0836 26.2569C14.304 26.5165 14.6271 26.6665 14.9663 26.6665H15.0332C15.3736 26.6665 15.6955 26.5154 15.9147 26.2569C17.2267 24.7062 18.9332 23.3065 20.5844 21.9542C24.0782 19.0915 27.6932 16.1308 27.6932 11.5488C27.6932 7.39154 24.7844 4.4873 20.619 4.4873Z" fill="black"/>
</svg>
