<svg width="24" height="24" viewBox="0 0 24 24" fill="none" xmlns="http://www.w3.org/2000/svg">
<path d="M21.4696 11.185L20.4396 9.755C20.209 9.43121 19.9046 9.16706 19.5516 8.98445C19.1985 8.80184 18.807 8.70604 18.4096 8.705H14.0296V6.565C14.0296 5.90196 13.7662 5.26608 13.2973 4.79724C12.8285 4.32839 12.1926 4.065 11.5296 4.065H4.55957C3.8971 4.06685 3.26229 4.33083 2.79384 4.79928C2.3254 5.26772 2.06142 5.90253 2.05957 6.565V16.505C2.05957 16.9028 2.21761 17.2844 2.49891 17.5657C2.78021 17.847 3.16175 18.005 3.55957 18.005H4.77957C4.85508 18.54 5.12128 19.0298 5.52918 19.3842C5.93708 19.7385 6.45923 19.9337 6.99957 19.9337C7.53991 19.9337 8.06207 19.7385 8.46996 19.3842C8.87786 19.0298 9.14406 18.54 9.21957 18.005H14.7796C14.8551 18.54 15.1213 19.0298 15.5292 19.3842C15.9371 19.7385 16.4592 19.9337 16.9996 19.9337C17.5399 19.9337 18.0621 19.7385 18.47 19.3842C18.8779 19.0298 19.1441 18.54 19.2196 18.005H20.4396C20.8374 18.005 21.2189 17.847 21.5002 17.5657C21.7815 17.2844 21.9396 16.9028 21.9396 16.505V12.635C21.9371 12.1146 21.7729 11.6079 21.4696 11.185ZM6.99957 18.935C6.75234 18.935 6.51067 18.8617 6.30511 18.7243C6.09955 18.587 5.93933 18.3918 5.84472 18.1634C5.75011 17.9349 5.72536 17.6836 5.77359 17.4411C5.82182 17.1987 5.94087 16.9759 6.11569 16.8011C6.2905 16.6263 6.51323 16.5073 6.75571 16.459C6.99818 16.4108 7.24952 16.4355 7.47792 16.5302C7.70633 16.6248 7.90156 16.785 8.03891 16.9905C8.17626 17.1961 8.24957 17.4378 8.24957 17.685C8.24957 18.0165 8.11787 18.3345 7.88345 18.5689C7.64903 18.8033 7.33109 18.935 6.99957 18.935ZM13.0296 17.005H9.14957C9.00397 16.5491 8.71723 16.1513 8.33077 15.8691C7.94431 15.5868 7.47813 15.4347 6.99957 15.4347C6.52101 15.4347 6.05483 15.5868 5.66837 15.8691C5.28191 16.1513 4.99517 16.5491 4.84957 17.005H3.55957C3.42696 17.005 3.29979 16.9523 3.20602 16.8586C3.11225 16.7648 3.05957 16.6376 3.05957 16.505V6.565C3.05957 6.16718 3.21761 5.78565 3.49891 5.50434C3.78021 5.22304 4.16175 5.065 4.55957 5.065H11.5296C11.9274 5.065 12.3089 5.22304 12.5902 5.50434C12.8715 5.78565 13.0296 6.16718 13.0296 6.565V17.005ZM16.9996 18.935C16.7523 18.935 16.5107 18.8617 16.3051 18.7243C16.0995 18.587 15.9393 18.3918 15.8447 18.1634C15.7501 17.9349 15.7254 17.6836 15.7736 17.4411C15.8218 17.1987 15.9409 16.9759 16.1157 16.8011C16.2905 16.6263 16.5132 16.5073 16.7557 16.459C16.9982 16.4108 17.2495 16.4355 17.4779 16.5302C17.7063 16.6248 17.9016 16.785 18.0389 16.9905C18.1763 17.1961 18.2496 17.4378 18.2496 17.685C18.2496 18.0165 18.1179 18.3345 17.8835 18.5689C17.649 18.8033 17.3311 18.935 16.9996 18.935ZM20.9396 16.505C20.9396 16.6376 20.8869 16.7648 20.7931 16.8586C20.6994 16.9523 20.5722 17.005 20.4396 17.005H19.1496C19.004 16.5491 18.7172 16.1513 18.3308 15.8691C17.9443 15.5868 17.4781 15.4347 16.9996 15.4347C16.521 15.4347 16.0548 15.5868 15.6684 15.8691C15.2819 16.1513 14.9952 16.5491 14.8496 17.005H14.0296V9.705H18.4096C18.6482 9.7066 18.883 9.76449 19.095 9.87396C19.307 9.98344 19.4901 10.1414 19.6296 10.335L20.6596 11.765C20.8395 12.0196 20.9372 12.3232 20.9396 12.635V16.505Z" fill="#797979"/>
<path d="M18.0283 12.205H16.0283C15.8957 12.205 15.7685 12.1523 15.6748 12.0586C15.581 11.9648 15.5283 11.8376 15.5283 11.705C15.5283 11.5724 15.581 11.4452 15.6748 11.3515C15.7685 11.2577 15.8957 11.205 16.0283 11.205H18.0283C18.1609 11.205 18.2881 11.2577 18.3819 11.3515C18.4756 11.4452 18.5283 11.5724 18.5283 11.705C18.5283 11.8376 18.4756 11.9648 18.3819 12.0586C18.2881 12.1523 18.1609 12.205 18.0283 12.205Z" fill="#797979"/>
</svg>
