<svg width="33" height="34" viewBox="0 0 33 34" fill="none" xmlns="http://www.w3.org/2000/svg">
<path d="M31.0373 24.8677L21.1764 3.72023C20.6159 2.51836 19.601 1.58836 18.3548 1.13484C17.1086 0.681313 15.7333 0.741406 14.5314 1.3019C13.3295 1.86239 12.3996 2.87736 11.946 4.12354C11.4925 5.36972 11.5526 6.74502 12.1131 7.9469L21.9748 29.0936C22.5351 30.2954 23.55 31.2255 24.7961 31.6791C26.0422 32.1327 27.4175 32.0727 28.6193 31.5123C29.8212 30.9519 30.7512 29.9371 31.2048 28.691C31.6585 27.4449 31.5976 26.0696 31.0373 24.8677Z" stroke="black" stroke-width="1.66667"/>
<path d="M16.1069 18.5202L11.1752 29.0936C10.8977 29.6887 10.5057 30.2233 10.0215 30.6669C9.53741 31.1106 8.97063 31.4545 8.35358 31.679C7.73652 31.9036 7.08128 32.0044 6.42526 31.9757C5.76924 31.9471 5.1253 31.7894 4.53019 31.5119C3.32849 30.9514 2.39862 29.9366 1.94511 28.6906C1.49159 27.4446 1.55157 26.0695 2.11186 24.8677L11.8869 3.90689" stroke="black" stroke-width="1.66667" stroke-linecap="round"/>
<path d="M4.53094 31.5118C7.03364 32.6788 10.0085 31.596 11.1756 29.0933C12.3426 26.5906 11.2598 23.6157 8.75713 22.4487C6.25443 21.2817 3.27952 22.3644 2.11249 24.8671C0.945467 27.3698 2.02824 30.3447 4.53094 31.5118Z" stroke="black" stroke-width="1.66667"/>
</svg>
