<svg width="40" height="7" viewBox="0 0 40 7" fill="none" xmlns="http://www.w3.org/2000/svg">
<path d="M33.0283 0.189999L33.105 4.68H33.0667L31.7667 0.191666H29.6283V5.845H31.0417L30.965 1.20333H31.0033L32.3967 5.845H34.4417V0.191666L33.0283 0.189999ZM6.11167 0.189999L5.04333 5.90333H6.59L7.37333 0.706666H7.41167L8.17667 5.90333H9.70333L8.65333 0.191666L6.11167 0.189999ZM14.7467 0.189999L14.04 4.54667H14.0017L13.295 0.191666H10.9667L10.8517 5.90333H12.285L12.3233 0.764999H12.3417L13.2967 5.90333H14.7483L15.7033 0.764999H15.7417L15.78 5.90333H17.2133L17.08 0.191666L14.7467 0.189999ZM2.63667 4.28C2.67857 4.41613 2.68488 4.56073 2.655 4.7C2.61667 4.89 2.48333 5.08167 2.10167 5.08167C1.73833 5.08167 1.52833 4.87167 1.52833 4.565V4.01167H0V4.45167C0 5.73167 1.01167 6.11333 2.08333 6.11333C3.11333 6.11333 3.97333 5.75 4.10667 4.81333C4.18333 4.31667 4.12667 3.99333 4.10667 3.87833C3.84 2.675 1.66167 2.33 1.50833 1.66167C1.48957 1.56087 1.48957 1.45747 1.50833 1.35667C1.54667 1.165 1.68167 0.973333 2.025 0.973333C2.36833 0.973333 2.55833 1.185 2.55833 1.49V1.83333H3.99167V1.43333C3.99167 0.191666 2.865 0 2.06333 0C1.05 0 0.21 0.343333 0.0566667 1.26167C0.00650769 1.51443 0.0133401 1.7752 0.0766667 2.025C0.305 3.20833 2.35 3.555 2.63667 4.28ZM21.2233 4.27833C21.28 4.41167 21.26 4.585 21.2417 4.7C21.2033 4.89 21.07 5.08167 20.6883 5.08167C20.325 5.08167 20.115 4.87167 20.115 4.565V4.01167H18.5867V4.45167C18.5867 5.71167 19.58 6.09333 20.65 6.09333C21.6817 6.09333 22.5217 5.75 22.655 4.795C22.7317 4.29833 22.675 3.99333 22.655 3.85833C22.4267 2.675 20.2667 2.31167 20.115 1.66167C20.0962 1.56087 20.0962 1.45747 20.115 1.35667C20.1533 1.165 20.2867 0.973333 20.6317 0.973333C20.955 0.973333 21.165 1.185 21.165 1.49V1.83333H22.5783V1.43333C22.5783 0.191666 21.47 0 20.6683 0C19.6567 0 18.835 0.325 18.6817 1.26167C18.6433 1.51 18.6433 1.73833 18.7017 2.025C18.93 3.20833 20.935 3.53333 21.2233 4.27833ZM26.0367 5.04333C26.4367 5.04333 26.5533 4.77667 26.59 4.62333C26.61 4.565 26.61 4.47 26.61 4.41333V0.189999H28.06V4.29667C28.06 4.41167 28.06 4.62167 28.0433 4.68C27.9467 5.74833 27.1067 6.09167 26.055 6.09167C25.005 6.09167 24.165 5.74833 24.0683 4.67833C24.0683 4.62167 24.05 4.41167 24.05 4.29667V0.189999H25.5V4.41167C25.5 4.48833 25.5 4.56333 25.52 4.62167C25.52 4.77333 25.6367 5.04333 26.0367 5.04333ZM37.9567 4.985C38.3767 4.985 38.51 4.71833 38.5483 4.56333C38.5667 4.50667 38.5667 4.41167 38.5667 4.35333V3.53167H37.975V2.69167H40V4.22C40 4.335 40 4.41167 39.9817 4.60333C39.885 5.65333 38.9867 6.015 37.975 6.015C36.9633 6.015 36.065 5.65333 35.97 4.60167C35.95 4.41167 35.95 4.335 35.95 4.22V1.81333C35.95 1.71833 35.97 1.52667 35.97 1.43C36.1033 0.361666 36.9633 0.0183328 37.975 0.0183328C38.9867 0.0183328 39.8667 0.361665 39.98 1.43167C40 1.60333 40 1.81333 40 1.81333V2.005H38.5667V1.68C38.5667 1.68 38.5667 1.54667 38.5483 1.47C38.5283 1.33667 38.415 1.05 37.975 1.05C37.555 1.05 37.4417 1.31667 37.4017 1.47C37.3833 1.545 37.3833 1.64167 37.3833 1.73667V4.35333C37.3833 4.43 37.3833 4.50667 37.4017 4.56333C37.4017 4.71667 37.555 4.985 37.9567 4.985Z" fill="black"/>
</svg>
