<svg width="40" height="27" viewBox="0 0 40 27" fill="none" xmlns="http://www.w3.org/2000/svg">
<path d="M33.269 26.6664C33.1278 26.6654 32.9926 26.6088 32.8927 26.509C32.7928 26.4091 32.7363 26.2739 32.7353 26.1326V0.533869C32.7363 0.392613 32.7928 0.257422 32.8927 0.157536C32.9926 0.057651 33.1278 0.00110147 33.269 0.000119355H39.454C39.5251 -0.00120546 39.5958 0.0115947 39.6619 0.0377782C39.728 0.0639617 39.7883 0.103008 39.8392 0.152654C39.8902 0.2023 39.9307 0.261559 39.9586 0.326997C39.9864 0.392435 40.001 0.462751 40.0015 0.533869V26.1326C40.0015 26.4326 39.754 26.6726 39.454 26.6664H33.269ZM22.8978 26.6664C22.8978 26.6664 22.4028 26.5164 22.4028 26.1326V10.4164C22.418 9.92634 22.3339 9.4383 22.1557 8.98157C21.9775 8.52484 21.7089 8.10885 21.3658 7.75858C21.0228 7.40831 20.6125 7.131 20.1596 6.94331C19.7067 6.75562 19.2205 6.66142 18.7303 6.66637H7.16777C6.49777 6.66637 6.66652 7.16762 6.66652 7.16762V26.1326C6.66652 26.5814 6.16527 26.6664 6.16527 26.6664H0.546523C0.475415 26.6677 0.404751 26.6549 0.338626 26.6287C0.272501 26.6025 0.21223 26.5635 0.161305 26.5138C0.11038 26.4642 0.0698134 26.4049 0.0419569 26.3395C0.0141003 26.2741 -0.000492714 26.2037 -0.000976562 26.1326V0.533869C-0.000976562 0.233869 0.246523 -0.00613064 0.546523 0.000119355H21.9853C23.8652 0.014269 25.6637 0.769584 26.9901 2.10201C28.3164 3.43443 29.0635 5.23635 29.069 7.11637L29.0815 26.1339C29.0817 26.204 29.068 26.2735 29.0412 26.3383C29.0145 26.4032 28.9752 26.4621 28.9256 26.5117C28.876 26.5613 28.8171 26.6006 28.7522 26.6273C28.6874 26.6541 28.6179 26.6678 28.5478 26.6676L22.8978 26.6664ZM11.4003 26.6664C11.3344 26.6665 11.2691 26.6537 11.2083 26.6285C11.1474 26.6034 11.092 26.5665 11.0455 26.5199C10.9989 26.4733 10.962 26.418 10.9368 26.3571C10.9117 26.2962 10.8989 26.231 10.899 26.1651V11.1651C10.899 10.8914 11.1265 10.6639 11.4003 10.6639H17.6828C17.9565 10.6764 18.164 10.8989 18.164 11.1651V26.1651C18.1647 26.2306 18.1524 26.2956 18.1278 26.3563C18.1032 26.417 18.0669 26.4722 18.0209 26.5188C17.9749 26.5654 17.9201 26.6024 17.8597 26.6278C17.7993 26.6531 17.7345 26.6662 17.669 26.6664H11.4003Z" fill="black"/>
</svg>
